<?xml version="1.0" encoding="UTF-8"?>
<svg id="_图层_2" data-name="图层 2" xmlns="http://www.w3.org/2000/svg" viewBox="0 0 37.34 37.34">
  <defs>
    <style>
      .cls-1 {
        fill: #005eac;
      }

      .cls-1, .cls-2 {
        stroke-width: 0px;
      }

      .cls-2 {
        fill: #fff;
      }
    </style>
  </defs>
  <g id="_图层_1-2" data-name="图层 1">
    <g>
      <g>
        <g>
          <polygon class="cls-1" points="18.83 16.09 18.71 15.97 18.71 14.38 18.83 14.25 20.08 14.25 20.2 14.38 20.2 15.29 20.08 15.42 19.34 15.42 19.22 15.29 19.22 15.06 19.34 14.93 19.72 14.93 19.72 14.74 19.19 14.74 19.19 15.61 20.2 15.61 20.2 14.37 20.33 14.24 20.56 14.24 20.69 14.37 20.69 15.97 20.56 16.09 18.83 16.09"/>
          <path class="cls-2" d="m20.56,14.37v1.6h-1.73v-1.59h1.24v.91h-.73v-.23h.5v-.44h-.77v1.12h1.26v-1.37h.23m0-.25h-.23l-.13.13-.12-.12h-1.24l-.25.25v1.59l.25.25h1.73l.25-.25v-1.6l-.25-.25h0Z"/>
        </g>
        <g>
          <polygon class="cls-1" points="16.93 16.09 16.8 15.97 16.8 14.37 16.93 14.24 17.16 14.24 17.29 14.37 17.29 15.61 18.3 15.61 18.3 14.74 17.77 14.74 17.77 14.93 18.14 14.93 18.27 15.06 18.27 15.29 18.14 15.42 17.41 15.42 17.29 15.29 17.29 14.38 17.41 14.25 18.66 14.25 18.78 14.38 18.78 15.97 18.66 16.09 16.93 16.09"/>
          <path class="cls-2" d="m17.16,14.37v1.37h1.26v-1.12h-.77v.44h.5v.23h-.73v-.91h1.24v1.59h-1.73v-1.6h.23m0-.25h-.23l-.25.25v1.6l.25.25h1.73l.25-.25v-1.59l-.25-.25h-1.24l-.12.12-.13-.13h0Z"/>
        </g>
        <g>
          <polygon class="cls-1" points="20.33 14.27 20.2 14.15 20.2 12.9 19.19 12.9 19.19 13.78 19.72 13.78 19.72 13.58 19.34 13.58 19.22 13.46 19.22 13.22 19.34 13.1 20.08 13.1 20.2 13.22 20.2 14.14 20.08 14.26 18.83 14.26 18.71 14.14 18.71 12.54 18.83 12.42 20.56 12.42 20.69 12.54 20.69 14.15 20.56 14.27 20.33 14.27"/>
          <path class="cls-2" d="m20.56,12.54v1.6h-.23v-1.37h-1.26v1.12h.77v-.44h-.5v-.23h.73v.91h-1.24v-1.59h1.73m0-.25h-1.73l-.25.25v1.59l.25.25h1.24l.12-.12.13.13h.23l.25-.25v-1.6l-.25-.25h0Z"/>
        </g>
        <g>
          <polygon class="cls-1" points="16.93 14.27 16.8 14.15 16.8 12.54 16.93 12.42 18.66 12.42 18.78 12.54 18.78 14.14 18.66 14.26 17.41 14.26 17.29 14.14 17.29 13.22 17.41 13.1 18.14 13.1 18.27 13.22 18.27 13.46 18.14 13.58 17.77 13.58 17.77 13.78 18.3 13.78 18.3 12.9 17.29 12.9 17.29 14.15 17.16 14.27 16.93 14.27"/>
          <path class="cls-2" d="m18.66,12.54v1.59h-1.24v-.91h.73v.23h-.5v.44h.77v-1.12h-1.26v1.37h-.23v-1.6h1.73m0-.25h-1.73l-.25.25v1.6l.25.25h.23l.13-.13.12.12h1.24l.25-.25v-1.59l-.25-.25h0Z"/>
        </g>
      </g>
      <g>
        <g>
          <path class="cls-1" d="m4.43,20.22c0-.05-.01-.07-.01-.07-.02-.02-.04-.03-.11-.04l-1.87-.45-.1-.11-.02-.22.08-.13.9-.37-.95-.23-.1-.11-.02-.22.08-.13,1.77-.73c.09-.04.1-.06.1-.06l.12-.21h.13s.13.1.13.1l.06.77-.11.13h-.13s-.13-.1-.13-.1l-.02-.14-1.08.46.84.2.2-.11.19-.26h.13s.13.1.13.1l.06.76-.11.13h-.13s-.13-.1-.13-.1l-.02-.14-1.08.45,1.1.25.15-.23h.13s.13.1.13.1l.05.66-.11.13h-.13s-.13-.11-.13-.11Z"/>
          <path class="cls-2" d="m4.46,17.25l.06.77h-.13s0-.07,0-.07c0-.05-.01-.09-.02-.11-.02-.03-.04-.04-.07-.04,0,0,0,0,0,0-.02,0-.06.01-.11.03l-1.4.55,1.21.29.27-.11c.07-.03.11-.06.14-.11.02-.03.02-.08.02-.14h.13s.06.75.06.75h-.13s0-.06,0-.06c0-.06-.02-.1-.03-.12-.02-.02-.03-.03-.06-.03,0,0,0,0,0,0-.02,0-.06.01-.11.03l-1.41.56,1.48.33s.08.01.1.01c0,0,0,0,.01,0,.03,0,.05-.01.06-.04.01-.02.02-.06.01-.12v-.08s.12-.01.12-.01l.05.66h-.13s-.01-.09-.03-.11c-.01-.03-.03-.05-.06-.06-.02-.02-.07-.03-.14-.05l-1.86-.45-.02-.22,1.26-.51-1.32-.32-.02-.22,1.77-.73c.09-.03.14-.07.17-.12.02-.03.02-.08.02-.15h.13m-.02-.26h-.13s-.23.28-.23.28c0,0,.01,0,.02,0,0,0-.01,0-.04.02l-1.77.73-.15.25.02.22.19.22.57.14-.54.22-.15.25.02.22.19.22,1.86.45s.06.01.07.02l.23.22h.13s.23-.28.23-.28l-.05-.66-.26-.22.22-.26-.06-.76-.15-.13.13-.15-.06-.77-.27-.23h0Zm-.84,1.33l.6-.24.1.09-.13.15-.2.08-.36-.09h0Zm.09,1.05l.59-.23.2.17-.17.2-.62-.14h0Z"/>
        </g>
        <g>
          <path class="cls-1" d="m3.54,22.55c-.1,0-.19-.01-.28-.04-.15-.05-.29-.14-.4-.28-.11-.13-.18-.29-.22-.48-.04-.18-.03-.35.02-.52.05-.17.13-.3.24-.4.11-.1.26-.17.44-.2l1.04-.2.21-.11-.12.02.08-.22.13-.02.15.1.16.82-.1.15-.13.02-.15-.1-.04-.14-1.04.21c-.19.04-.27.08-.31.11-.05.04-.1.1-.12.19-.03.09-.04.17-.02.27.02.09.06.18.13.25.06.07.13.12.19.14.03,0,.06.01.1.01.07,0,.15,0,.24-.03l.92-.18.17.07-.07-.11.12-.09-.13-.04.1-.15.13-.02.15.1.14.71-.1.15-.13.02-.15-.1-.05-.25-.07.13-.98.19c-.09.02-.17.03-.25.03Z"/>
          <path class="cls-2" d="m4.71,20.21l.16.82-.13.02v-.05c-.02-.07-.04-.11-.06-.14-.01-.02-.04-.03-.06-.04,0,0-.02,0-.03,0-.03,0-.07,0-.12.01l-.95.19c-.17.03-.29.08-.37.14-.07.06-.13.14-.17.25-.04.11-.04.22-.02.33.02.12.07.22.15.31.08.09.16.15.25.18.04.01.08.02.14.02.07,0,.16,0,.26-.03l.92-.18c.07-.01.11-.03.14-.05.03-.02.04-.04.05-.07,0-.03,0-.07,0-.13v-.06s.12-.02.12-.02l.14.71-.13.02v-.05c-.03-.08-.05-.13-.09-.16-.02-.01-.05-.02-.09-.02-.03,0-.06,0-.09.01l-.98.19c-.08.02-.15.02-.22.02-.09,0-.17-.01-.24-.04-.13-.04-.24-.12-.34-.24-.09-.11-.16-.26-.19-.42-.03-.16-.02-.31.02-.46.04-.15.11-.26.21-.34.09-.08.22-.14.38-.17l1.04-.2c.07-.01.11-.03.14-.05.02-.02.04-.04.05-.06,0-.03,0-.07,0-.12v-.08s.11-.02.11-.02m-.05-.25l-.13.02-.2.29v.02s-1.01.2-1.01.2c-.2.04-.37.12-.5.23-.13.11-.22.27-.28.46-.06.19-.07.38-.03.58.04.21.12.39.24.54.12.15.28.26.45.31.1.03.21.05.32.05.08,0,.18,0,.27-.03l.98-.19s.02,0,0-.03c-.03-.02-.04-.04-.04-.04h.26s-.24.08-.24.08l.29.2.13-.02.2-.29-.14-.71-.29-.2-.13.02-.2.29v.02s-.9.18-.9.18c-.08.02-.15.03-.21.03-.04,0-.06,0-.07,0-.04-.01-.09-.05-.13-.1-.05-.06-.08-.12-.1-.19-.01-.07,0-.14.01-.2.02-.06.05-.1.08-.13.02-.01.08-.05.26-.09l.93-.18v.02s.3.2.3.2l.13-.02.2-.29-.16-.82-.29-.2h0Z"/>
        </g>
        <g>
          <path class="cls-1" d="m3.68,25.35l-.25-.79.08-.16.12-.04.16.08c.03.09.05.13.05.15,0-.01.04-.02.09-.04l.52-.17-.27-.83-.54.17c-.08.03-.1.04-.1.04,0,0,0,0,0,0,.02,0,.04.05.06.13l-.08.16-.12.04-.16-.08-.26-.79.08-.16.12-.04.16.08c.04.13.05.15.06.15l1.47-.49.19-.12-.12.04.05-.24.12-.04.16.08.25.79-.08.16-.12.04-.16-.08-.05-.14s-.55.17-.55.17l.27.83.44-.14c.06-.02.09-.03.11-.04l.11-.09-.15-.04.08-.16.12-.04.16.08.25.79-.08.16-.12.04-.16-.08-.05-.13-1.48.48c-.08.03-.1.04-.1.04,0,0,0,0,0,0,.02,0,.04.05.06.12l-.08.16-.12.04-.16-.08Z"/>
          <path class="cls-2" d="m5.16,22.53l.26.79-.12.04-.02-.05c-.02-.06-.04-.11-.06-.13-.02-.02-.05-.04-.08-.04,0,0,0,0,0,0-.03,0-.07.01-.14.03l-.57.18.34,1.06.56-.18c.08-.02.12-.04.14-.05.03-.02.05-.04.06-.07,0-.03,0-.07-.01-.13l-.03-.08.12-.04.25.79-.12.04-.02-.07c-.02-.05-.04-.09-.06-.11-.02-.02-.04-.03-.07-.03,0,0,0,0,0,0-.03,0-.07.01-.13.03l-1.4.45c-.08.03-.13.05-.14.06-.02.02-.03.04-.03.07,0,.02.02.08.05.18l-.12.04-.25-.79.12-.04.02.06c.02.07.04.12.06.14.02.02.04.03.06.03,0,0,0,0,0,0,.02,0,.07-.01.16-.04l.64-.21-.34-1.06-.66.21c-.08.02-.13.05-.14.06-.02.02-.03.04-.02.07,0,.02.02.09.05.19l-.12.04-.26-.79.12-.04.02.05c.02.08.04.12.06.14.01.02.04.03.06.03,0,0,0,0,.01,0,.03,0,.07,0,.12-.02l1.41-.46c.06-.02.11-.04.13-.06.02-.02.03-.04.04-.07,0-.03,0-.06-.02-.12l-.03-.08.12-.04m-.08-.24l-.12.04-.16.31v.02s-1.32.43-1.32.43v-.02s-.32-.16-.32-.16l-.12.04-.16.31.26.79.31.16.12-.04.16-.31s0-.01,0-.02l.38-.12.19.59-.38.12v-.02s-.32-.16-.32-.16l-.12.04-.16.31.25.79.32.16.12-.04.16-.32s0,0,0-.01l1.33-.43h0s.31.17.31.17l.12-.04.16-.31-.25-.79-.31-.16-.12.04-.16.31v.02s-.31.1-.31.1l-.19-.59.31-.1v.02s.32.16.32.16l.12-.04.16-.31-.26-.79-.31-.16h0Z"/>
        </g>
        <g>
          <path class="cls-1" d="m4.7,27.56l-.33-.69.06-.17.12-.06.16.05.04.08s.31-.31.31-.31l-.26-.55-.41.04-.06.25-.12.06-.17-.06-.28-.58.06-.17.12-.06.17.06-.04.16.1-.08h.15s1.9-.16,1.9-.16l.12.07.11.23-.02.14-1.34,1.38c-.08.08-.09.11-.09.11l-.03.25-.12.06-.17-.06Zm.67-1.4l.33-.33-.46.04.13.28Z"/>
          <path class="cls-2" d="m6.25,25.51l.11.23-1.34,1.38c-.07.07-.11.12-.12.17-.01.04,0,.09.02.14v.03s-.1.06-.1.06l-.33-.69.12-.06s.02.04.03.06c.02.04.04.07.06.08.02.01.04.02.05.02.01,0,.02,0,.03,0,.02,0,.06-.04.13-.11l.32-.31-.33-.71-.49.05c-.05,0-.09.01-.1.02-.02,0-.03.02-.04.04,0,.02-.01.03-.01.05,0,.02.01.05.03.09.01.03.02.05.03.06l-.12.06-.28-.58.12-.06c.03.05.05.09.07.11.02.02.05.03.08.04.02,0,.04,0,.07,0,.03,0,.07,0,.12,0l1.9-.15m-.23.17l-.98.09.28.6.7-.7m.21-.42l-1.9.15s-.07,0-.1,0l-.32-.13-.12.06-.12.33.28.58.33.12.12-.06.1-.25.24-.02.18.39-.17.17-.25-.08-.12.06-.12.33.33.69.33.12.12-.06.12-.33s0,0,0,0c0,0,.01-.02.05-.06l1.34-1.38.05-.28-.11-.23-.25-.14h0Z"/>
        </g>
        <g>
          <path class="cls-1" d="m5.87,29.37l-.1-.16v-.12s.77-1.66.77-1.66l-.91.61c-.05.04-.09.06-.1.07,0,.03,0,.05.06.13l-.04.17-.11.07-.17-.03-.4-.61.03-.17.11-.07.17.04.08.11s.04-.01.12-.07l1.14-.76c.06-.04.09-.06.11-.08l.06-.14-.13.02.03-.17.11-.07.17.04.37.55v.12s-.6,1.31-.6,1.31l.65-.43c.07-.04.08-.07.08-.07l-.05-.13.04-.17.11-.07.17.03.4.6-.03.17-.11.07-.17-.03-.07-.1s-.06.02-.12.05l-1.47.98-.17-.03Z"/>
          <path class="cls-2" d="m6.75,26.58l.37.55-.8,1.71,1.03-.68c.06-.04.1-.08.12-.11.02-.03.03-.06.02-.09,0-.03-.02-.07-.05-.12l-.03-.05.11-.07.4.6-.11.07-.02-.03c-.04-.05-.06-.09-.08-.1-.02-.01-.04-.02-.07-.02-.01,0-.02,0-.04,0-.04,0-.09.03-.15.07l-1.47.98-.1-.16.96-2.06-1.28.85c-.07.05-.11.08-.13.09-.02.02-.03.04-.03.07,0,.03,0,.05,0,.08,0,.03.03.07.08.14l-.11.07-.4-.61.11-.07.02.03c.04.06.07.1.1.11.02,0,.04.01.06.01.01,0,.02,0,.04,0,.04,0,.09-.03.16-.08l1.14-.76c.07-.05.11-.08.13-.09.02-.03.04-.06.03-.09,0-.03-.02-.08-.07-.14l-.03-.05.11-.07m-.14-.21l-.11.07-.07.35v.02s0,0,0,0l-1.14.76s-.02.02-.03.02l-.35-.1-.11.07-.07.35.4.61.35.07.11-.07.07-.34s0-.01-.01-.02c0,0,.01,0,.02-.01l.54-.36-.59,1.25.02.24.1.16.35.07,1.47-.98s.02-.01.03-.02l.33.09.11-.07.07-.35-.4-.6-.35-.07-.11.07-.07.35v.02s0,0,0,0l-.28.19.42-.9-.02-.24-.37-.55-.35-.07h0Z"/>
        </g>
        <g>
          <path class="cls-1" d="m8.63,31.89c-.05,0-.11,0-.16-.02-.12-.03-.24-.08-.35-.16-.1-.07-.21-.16-.31-.25l-.8-.72v-.18s.08-.1.08-.1h.18s.11.08.11.08l1.04-1.15v-.12s-.06-.23-.06-.23l.09-.1h.18s.76.68.76.68c.19.18.32.31.38.39.09.14.14.28.14.42,0,.15-.05.28-.15.4-.07.08-.16.14-.26.17-.06.02-.12.03-.18.03-.02,0-.04,0-.06,0,.03.1.04.21.03.31-.02.12-.07.22-.16.32-.08.09-.18.15-.3.19-.06.02-.13.03-.2.03Zm-.8-1.03s-.02.05.03.09l.16.14c.18.16.28.23.33.26.04.02.09.03.14.03.12-.01.17-.04.22-.1.04-.05.06-.1.07-.15,0-.06,0-.12-.04-.18-.03-.05-.1-.14-.3-.32l-.22-.2-.39.43Zm.86-.55c.17.15.24.2.27.22.06.03.12.05.17.05.09-.01.14-.04.19-.1.04-.04.06-.09.06-.14,0-.05-.02-.1-.05-.15-.01-.02-.06-.08-.22-.22l-.26-.23-.36.4.2.18Z"/>
          <path class="cls-2" d="m8.54,29.05l.76.69c.19.17.31.29.36.37.08.12.12.23.12.35,0,.12-.04.22-.12.31-.06.07-.13.11-.21.13-.04.01-.09.02-.14.02-.04,0-.08,0-.11-.01-.06-.01-.13-.04-.21-.08.07.09.12.17.14.23.04.09.05.18.03.28-.02.09-.06.18-.13.25-.07.07-.15.12-.24.15-.05.02-.11.02-.16.02-.04,0-.09,0-.13-.01-.1-.02-.21-.07-.31-.14-.1-.07-.2-.15-.3-.24l-.8-.73.09-.1.05.05c.05.05.09.07.13.07,0,0,0,0,0,0,.05,0,.09-.02.13-.07l1.01-1.11c.05-.05.08-.09.08-.12,0-.03,0-.05,0-.08,0-.02-.04-.06-.09-.1l-.05-.05.09-.1m.59,1.65s.03,0,.05,0c.09-.01.17-.06.24-.14.06-.07.09-.14.09-.22,0-.08-.02-.15-.07-.23-.03-.05-.11-.13-.24-.25l-.35-.32-.53.59.29.26c.14.12.24.2.3.23.08.04.15.06.23.06m-.64.8s.04,0,.07,0c.1-.01.18-.06.25-.14.06-.07.09-.14.1-.23,0-.09-.01-.17-.06-.25-.05-.08-.16-.2-.33-.36l-.31-.28-.47.53c-.05.05-.07.09-.08.1,0,.02,0,.04.01.06,0,.02.04.05.11.11l.16.14c.15.14.27.23.35.27.06.03.13.05.2.05m.22-2.64l-.35.02-.09.1.02.35h.02s-.94,1.05-.94,1.05h-.02s-.35,0-.35,0l-.09.1.02.35.8.73c.1.09.21.18.32.26.13.09.27.15.4.18.06.01.12.02.18.02.08,0,.16-.01.23-.03.14-.04.26-.12.35-.22.1-.11.16-.24.19-.38.01-.07.01-.14,0-.21.04,0,.08-.01.12-.02.12-.04.23-.11.32-.2.12-.13.19-.3.18-.48,0-.17-.06-.33-.17-.49-.07-.1-.19-.23-.4-.42l-.76-.69h0Zm-.04,1.26l.19-.22.17.15c.17.15.2.2.21.2.02.04.03.06.03.08,0,0,0,.02-.03.05-.05.05-.07.05-.08.06h-.02s-.07-.01-.11-.03c-.02,0-.08-.05-.25-.2l-.11-.1h0Zm-.69.76l.26-.28.12.11c.2.18.26.27.28.29.03.05.03.09.03.11,0,.03-.01.06-.04.08-.04.04-.07.05-.1.06h-.03s-.06,0-.09-.02c-.03-.02-.12-.07-.3-.24l-.12-.11h0Z"/>
        </g>
        <g>
          <path class="cls-1" d="m10.37,33.21c-.17,0-.34-.06-.5-.16-.16-.09-.28-.22-.37-.37-.09-.15-.13-.3-.13-.45,0-.15.05-.3.15-.46l.55-.9.05-.23-.06.11-.11-.21.07-.11.17-.04.71.43.04.17-.07.11-.17.04-.13-.07s-.55.91-.55.91c-.1.16-.12.26-.13.31,0,.07.01.14.05.22.04.08.1.14.19.19.08.05.17.08.27.08h0c.1,0,.18-.02.23-.05.04-.03.12-.09.22-.26l.49-.8.17-.07-.12-.02-.11-.07-.04-.17.07-.11.17-.04.62.37.04.17-.07.11-.17.04-.12-.18v.12s-.56.92-.56.92c-.1.17-.23.3-.37.38-.13.07-.27.11-.42.11h-.05Z"/>
          <path class="cls-2" d="m10.12,30.49l.71.43-.07.11-.05-.03c-.06-.04-.1-.06-.13-.06,0,0,0,0-.01,0-.02,0-.04,0-.06.02-.02.02-.05.05-.09.12l-.5.83c-.09.15-.14.27-.15.36,0,.09.02.19.07.29.05.1.13.18.23.24.1.06.21.09.33.1,0,0,.01,0,.02,0,.11,0,.21-.02.29-.07.08-.05.17-.15.26-.31l.49-.8c.04-.06.06-.1.06-.14,0-.03,0-.06-.02-.09-.02-.03-.05-.06-.1-.08l-.05-.03.07-.11.62.37-.07.11-.04-.03c-.06-.03-.1-.05-.14-.05,0,0-.02,0-.03,0-.04.01-.09.05-.13.13l-.52.85c-.09.16-.2.27-.32.34-.11.06-.23.09-.36.09-.01,0-.03,0-.04,0-.15,0-.3-.06-.44-.14-.14-.08-.25-.19-.33-.32-.08-.13-.12-.26-.11-.39,0-.12.04-.26.13-.4l.55-.9c.04-.06.06-.1.06-.13,0-.03,0-.06-.02-.08-.01-.02-.05-.05-.1-.08l-.07-.04.07-.11m.13-.21l-.34.08-.07.11.08.34h.02s-.53.89-.53.89c-.11.18-.16.35-.17.52,0,.17.05.35.15.52.1.17.24.31.41.41.18.11.37.17.56.18h.05c.17,0,.34-.04.48-.12.16-.09.3-.23.41-.42l.52-.85s.02-.02.01-.02-.02,0-.03,0h-.06s.16-.2.16-.2l-.09.24.34-.08.07-.11-.08-.34-.62-.37-.34.08-.07.11.08.34h.02s-.48.8-.48.8c-.1.17-.16.21-.18.22-.03.02-.09.03-.15.03-.09,0-.16-.02-.22-.06-.06-.04-.11-.08-.14-.14-.03-.06-.04-.11-.04-.15,0-.02.01-.09.11-.25l.49-.81h.02s.34-.07.34-.07l.07-.11-.08-.34-.71-.43h0Z"/>
        </g>
        <g>
          <path class="cls-1" d="m12.61,34.28c-.13,0-.27-.03-.41-.08-.13-.05-.24-.12-.32-.19-.05-.05-.1-.11-.15-.18l-.03.04-.14.03-.1-.04-.08-.14.15-.77.14-.1.15.03.1.13c0,.14.01.26.05.37.04.11.09.2.16.27.07.07.14.13.23.16.06.02.13.04.19.04.05,0,.1,0,.14-.02.1-.03.13-.09.15-.12.02-.05.02-.1,0-.15-.02-.04-.08-.12-.24-.25l-.32-.25c-.2-.15-.32-.3-.38-.45-.06-.15-.06-.31,0-.45.04-.11.12-.21.23-.28.1-.07.23-.11.39-.12,0,0,.02,0,.02,0,.18,0,.31.03.43.07.12.05.24.12.33.21.03.03.06.06.09.09h0s.13-.04.13-.04l.1.04.08.13-.09.68-.13.11h-.15s-.11-.13-.11-.13c-.01-.19-.07-.35-.16-.49-.07-.11-.16-.18-.27-.23-.06-.02-.12-.04-.18-.04-.07,0-.12.02-.15.04l-.07.15s.02.07.05.1c.02.03.08.09.2.18l.33.26s.1.09.18.17c.08.08.14.16.18.23.04.08.06.16.07.25,0,.09-.01.18-.05.27-.08.19-.23.33-.45.41-.09.03-.19.05-.29.05Z"/>
          <path class="cls-2" d="m12.57,31.87c.11,0,.23.02.34.07.11.04.21.11.3.18.06.05.11.12.15.19l.11-.11.1.04-.09.68h-.15c-.02-.22-.07-.4-.17-.56-.08-.13-.19-.22-.33-.28-.08-.03-.15-.04-.22-.04,0,0-.02,0-.02,0-.08,0-.14.02-.2.06-.05.03-.09.08-.11.13-.02.04-.02.09-.01.15,0,.05.03.11.07.16.04.05.11.12.22.2l.33.26s.1.08.17.16c.07.07.12.14.16.2.03.06.05.13.05.2,0,.07,0,.14-.04.22-.06.16-.19.27-.37.34-.08.03-.16.04-.25.04-.12,0-.24-.03-.37-.08-.11-.05-.21-.1-.29-.17-.08-.07-.15-.17-.22-.29l-.14.16-.1-.04.15-.77.14.03c0,.15.02.29.06.42.04.12.11.23.19.32.08.09.17.15.27.19.08.03.16.05.23.05.06,0,.12,0,.18-.03.11-.04.19-.1.23-.2.03-.09.03-.17,0-.25-.04-.08-.13-.18-.28-.29l-.32-.25c-.18-.14-.29-.27-.34-.39-.05-.12-.05-.24,0-.36.04-.09.1-.17.18-.22.08-.06.19-.09.32-.1.02,0,.04,0,.06,0m0-.25s-.05,0-.08,0c-.17.01-.33.06-.45.14-.13.09-.22.2-.27.34-.07.17-.07.36,0,.54.01.03.03.06.04.1l-.13-.02-.29.2-.15.77.15.28.1.04.17-.04s.08.09.12.12c.1.09.22.16.36.22.16.06.31.09.46.09.11,0,.22-.02.33-.05.25-.09.44-.25.53-.48.04-.11.06-.21.05-.32,0-.11-.03-.21-.08-.31-.01-.03-.03-.05-.05-.08h.07s.27-.21.27-.21l.09-.68-.16-.27-.1-.04-.13.03s-.04-.04-.06-.06c-.11-.1-.23-.18-.37-.23-.14-.06-.29-.08-.43-.08h0Zm.5,1.2s-.02-.02-.03-.02l-.33-.26c-.12-.09-.16-.14-.17-.16-.02-.03-.03-.04-.03-.05.03-.03.05-.03.08-.04,0,0,0,0,0,0,.05,0,.1,0,.14.03.09.04.16.09.21.18.06.1.1.2.12.32h0Zm-.53.89s-.09,0-.14-.03c-.07-.03-.13-.07-.18-.13-.06-.06-.1-.14-.13-.23-.03-.09-.05-.19-.05-.3.04.04.09.08.15.13l.32.25c.16.12.2.19.21.21,0,.06-.01.08-.07.1-.03.01-.07.02-.1.02h0Z"/>
        </g>
        <g>
          <path class="cls-1" d="m13.32,34.54l-.09-.15.03-.13.15-.09.13.03s.01-.02.03-.1l.38-1.37c.02-.08.02-.11.02-.11l-.13-.04-.09-.15.03-.13.15-.09.8.22.09.15-.04.12-.15.09-.12-.03s-.03.03-.06.13l-.37,1.34-.14.12h.13s.13.03.13.03l.09.15-.04.12-.15.09-.8-.22Z"/>
          <path class="cls-2" d="m13.93,32.34l.8.22-.03.12-.06-.02s-.07-.02-.09-.02c-.01,0-.03,0-.04,0-.03,0-.06.03-.08.05-.02.03-.04.08-.07.17l-.37,1.34c-.02.07-.03.12-.02.15,0,.03.02.06.04.08.02.02.06.04.12.05l.06.02-.03.12-.8-.22.03-.13.07.02s.07.02.1.02c.01,0,.02,0,.03,0,.03,0,.05-.02.07-.04.02-.02.04-.07.06-.14l.38-1.37c.02-.08.03-.13.03-.16,0-.03-.02-.05-.04-.07-.02-.02-.06-.04-.12-.05l-.07-.02.03-.13m.07-.24l-.31.17-.03.13.17.31h.02s-.38,1.35-.38,1.35h-.02s-.31.17-.31.17l-.03.13.17.31.8.22.31-.17.03-.12-.17-.31h-.02s.37-1.33.37-1.33c0,0,0-.02,0-.03h.02s.31-.16.31-.16l.03-.12-.17-.31-.8-.22h0Z"/>
        </g>
        <g>
          <path class="cls-1" d="m16.07,35.15l-.1-.08-.67-1.7-.19,1.08c-.01.06-.02.11-.02.13.02.02.04.03.14.05l.1.14-.02.13-.14.1-.72-.12-.1-.14.02-.13.14-.1.12.02s.03-.04.05-.14l.23-1.35c.01-.07.02-.11.02-.13l-.07-.14-.08.11-.1-.14.02-.13.14-.1.65.11.09.08.53,1.35.13-.77c.01-.08,0-.11,0-.11l-.13-.05-.1-.14.02-.13.14-.1.71.12.1.14-.02.13-.14.1h-.11s-.03.04-.05.11l-.3,1.74-.14.1-.18-.03Z"/>
          <path class="cls-2" d="m14.85,32.62l.65.11.69,1.76.21-1.21c.01-.07.01-.13,0-.16,0-.03-.03-.06-.05-.08-.03-.02-.07-.04-.12-.05h-.05s.02-.14.02-.14l.71.12-.02.13h-.04s-.07-.02-.1-.02c-.01,0-.03,0-.03,0-.03,0-.06.03-.08.07-.02.04-.04.09-.05.16l-.3,1.75-.18-.03-.83-2.12-.26,1.52c-.01.08-.02.14-.02.16,0,.02.01.05.03.07.02.02.04.04.06.05.02.01.07.02.15.04l-.02.13-.72-.12.02-.13h.04s.08.02.1.02c.02,0,.04,0,.05,0,.03,0,.05-.03.07-.06.02-.03.04-.09.05-.17l.23-1.35c.01-.08.02-.14.02-.16,0-.04-.02-.06-.04-.08-.02-.02-.07-.04-.15-.05h-.05s.02-.14.02-.14m.04-.25l-.29.2-.02.13.21.29h.02s0,0,0,0l-.23,1.35s0,.03,0,.04l-.31.19-.02.13.2.29.72.12.29-.2.02-.13-.2-.29s-.02,0-.02,0c0,0,0-.02,0-.02l.11-.64.51,1.29.19.15.18.03.29-.2.3-1.75s0-.02,0-.03l.3-.18.02-.13-.2-.29-.71-.12-.29.2-.02.13.2.29h.02s0,0,0,.01l-.06.33-.36-.93-.19-.16-.65-.11h0Z"/>
        </g>
        <g>
          <path class="cls-1" d="m16.9,35.27l-.12-.13v-.13s.14-.12.14-.12l.11.13v-.12l.12-1.57c-.02-.08-.07-.08-.14-.08l-.12-.13v-.13s.14-.12.14-.12l1.75.1.11.09.17.58-.08.15-.14.04-.16-.08c-.03-.08-.05-.15-.08-.19-.03-.04-.06-.08-.11-.11-.04-.03-.08-.05-.12-.06-.03,0-.1-.02-.28-.03l-.4-.02-.03.54s.14,0,.15,0c.1,0,.13-.01.14-.02.06-.06.07-.1.08-.2l.13-.15h.15s.12.14.12.14l-.05.95-.13.12h-.15s-.12-.14-.12-.14c0-.17,0-.19,0-.2-.07-.07-.11-.08-.2-.09h-.14s-.03.57-.03.57l.37.08h.1c.11,0,.21,0,.27-.03.08-.03.16-.08.23-.15.06-.06.11-.14.17-.25l.16-.06.14.06.07.16-.28.66-.12.08-1.82-.1Z"/>
          <path class="cls-2" d="m17.03,32.99l1.75.1.17.58-.14.04c-.03-.09-.06-.17-.1-.23-.04-.05-.08-.1-.14-.14-.05-.04-.11-.07-.17-.08-.06-.02-.16-.03-.31-.04l-.52-.03-.04.79h.26s.03.02.04.02c.08,0,.14-.01.18-.04.05-.03.09-.07.11-.12.02-.04.03-.1.03-.19v-.04s.15,0,.15,0l-.05.95h-.15s0-.09,0-.09c0-.07,0-.12,0-.16,0-.03-.03-.06-.05-.09-.03-.03-.06-.05-.09-.06-.03-.01-.09-.02-.17-.03h-.26s-.04.69-.04.69c0,.07,0,.12,0,.13,0,.02.02.03.03.04.01,0,.06.01.13.02l.32.02s.08,0,.11,0c.13,0,.23-.01.32-.04.1-.04.2-.1.28-.18.06-.07.13-.16.19-.29l.14.06-.28.66-1.82-.1v-.13s.07,0,.07,0c.02,0,.04,0,.06,0,.04,0,.06,0,.07,0,.03-.01.05-.03.07-.06.01-.02.02-.06.02-.13l.08-1.48c0-.07,0-.11-.01-.14-.01-.02-.03-.04-.07-.06-.02,0-.08-.02-.18-.02v-.13m.02-.25l-.26.24v.13s.23.26.23.26c.01,0,.03,0,.04,0l-.09,1.4h-.02s-.27.23-.27.23v.13s.23.26.23.26l1.82.1.24-.15.28-.66-.13-.33-.14-.06-.32.12c-.06.13-.12.19-.15.22-.06.06-.12.1-.18.12l.19-.17.05-.87s.01.04.02.06l.31.17.14-.04.16-.31-.17-.58-.23-.18-1.75-.1h0Zm.75,1.01l.02-.29h.25s-.15.15-.15.15c0,.11-.01.14-.01.14,0,0,0,0,0,0,0,0-.02,0-.05,0h-.04Zm-.06,1.03l.02-.38h.01s.08,0,.09,0c0,0,0,.03,0,.07v.08s.21.24.21.24c-.03,0-.05,0-.08,0h-.24Z"/>
        </g>
        <g>
          <path class="cls-1" d="m19.37,35.27l-.21-.76.09-.15.14-.04.15.07c.06.12.13.23.21.31.08.08.17.14.26.17.08.03.15.04.22.04.17-.01.27-.05.35-.13.08-.07.08-.14.08-.18,0-.06-.03-.1-.07-.13-.04-.03-.13-.07-.33-.11l-.39-.08c-.25-.05-.42-.13-.54-.23-.12-.11-.19-.25-.2-.41-.01-.12.02-.24.08-.35.06-.11.16-.2.29-.28.13-.08.28-.12.44-.13.02,0,.04,0,.06,0,.16,0,.25.01.33.04.04.01.08.03.12.04h0s.11-.1.11-.1h.11s.13.08.13.08l.22.65-.07.16-.14.06-.15-.05c-.09-.16-.21-.28-.35-.37-.09-.06-.19-.08-.3-.08-.12,0-.19.03-.24.06-.05.03-.08.06-.1.09l-.1.23.1-.07s.05.05.09.07c.04.02.11.04.26.08l.41.09c.05.01.13.03.24.07.11.04.2.08.27.13.07.05.13.12.17.2.04.08.07.17.08.26.02.21-.06.4-.22.56-.16.16-.38.25-.64.28h-.11c-.1,0-.19,0-.27-.03-.07-.02-.14-.05-.22-.09v.05s-.12.09-.12.09h-.11s-.13-.08-.13-.08Z"/>
          <path class="cls-2" d="m20.69,32.98l.22.65-.14.06c-.11-.18-.24-.32-.4-.41-.11-.07-.23-.1-.36-.1-.02,0-.04,0-.06,0-.09,0-.17.03-.24.07-.07.04-.12.08-.15.14-.03.05-.05.11-.04.16,0,.05.02.09.05.14.03.04.08.08.14.11.06.03.15.06.29.09l.41.09c.05.01.12.03.22.07.1.03.17.07.23.11.06.04.1.09.14.16.04.06.06.13.06.21.01.17-.05.33-.19.47-.14.14-.33.22-.56.24-.03,0-.07,0-.1,0-.08,0-.16-.01-.24-.03-.1-.03-.21-.08-.33-.16l-.05.21h-.11s-.21-.75-.21-.75l.14-.04c.06.14.14.25.24.35.1.09.2.16.31.2.09.03.18.05.27.05.02,0,.04,0,.06,0,.15-.01.27-.07.38-.17.09-.08.13-.17.12-.28,0-.09-.05-.17-.12-.22-.07-.05-.2-.1-.38-.14l-.39-.08c-.22-.04-.38-.11-.48-.2-.1-.09-.15-.2-.16-.32,0-.1.01-.19.06-.28.05-.09.13-.17.25-.23.11-.07.24-.11.38-.12.03,0,.06,0,.08,0,.09,0,.18.01.26.04.08.02.15.06.22.11l.05-.15h.11m-.02-.26h-.11s-.11.09-.11.09c-.03-.01-.05-.02-.08-.03-.11-.03-.22-.05-.33-.05-.03,0-.07,0-.1,0-.18.01-.34.06-.49.15-.15.09-.27.2-.34.33-.08.13-.11.27-.1.42.02.19.1.36.24.49.03.02.05.05.08.07l-.12.04-.17.31.21.76.26.18h.11s.13-.12.13-.12c.05.02.11.04.16.06.09.03.2.04.3.04.04,0,.08,0,.12,0,.3-.02.54-.13.72-.31.19-.19.28-.42.26-.66,0-.11-.04-.22-.09-.31-.05-.1-.12-.18-.21-.24-.02-.02-.05-.03-.07-.05l.07-.03.15-.31-.22-.65-.26-.17h0Zm-.17.99s-.03,0-.04,0l-.41-.09c-.15-.03-.21-.06-.23-.06-.03-.02-.04-.03-.05-.03,0-.03.02-.05.06-.07.04-.02.08-.03.14-.04,0,0,0,0,.01,0,.11,0,.19.02.26.07.1.06.18.14.25.24h0Zm-.24,1.07c-.09,0-.14-.01-.2-.03-.08-.03-.15-.08-.22-.15-.07-.07-.13-.15-.18-.25.06.02.12.03.19.05l.4.08c.2.04.26.08.28.09.02.05.02.08-.02.12-.06.06-.13.09-.22.1,0,0-.01,0-.02,0h0Z"/>
        </g>
        <g>
          <path class="cls-1" d="m21.59,35.05l-.31-.73.06-.16.13-.06.16.05c.07.11.16.21.25.28.09.07.19.11.29.14.05.01.1.02.15.02.04,0,.08,0,.13-.01.12-.03.21-.08.28-.17.07-.08.06-.15.05-.19-.01-.06-.04-.09-.09-.12-.04-.02-.14-.05-.34-.07l-.4-.02c-.25-.02-.43-.07-.56-.16-.13-.1-.22-.22-.25-.38-.03-.12-.02-.24.03-.36.05-.11.13-.22.25-.32.12-.09.26-.16.41-.19.08-.02.16-.03.24-.03.05,0,.1,0,.15.01.04,0,.08.02.12.03h0s.1-.11.1-.11l.11-.02.14.07.31.61-.05.16-.13.07-.16-.03c-.12-.15-.25-.25-.4-.31-.08-.03-.15-.05-.23-.05-.04,0-.08,0-.13.01-.07.02-.13.04-.18.08-.04.03-.08.07-.09.1l.03.16s.06.04.1.06c.04.01.11.03.26.04l.42.03c.05,0,.14.02.24.04.11.02.21.05.28.09.08.04.14.1.2.17.05.07.09.16.11.25.05.2,0,.4-.14.59-.14.18-.34.3-.6.36-.09.02-.17.03-.25.03-.04,0-.08,0-.12,0-.07,0-.15-.03-.23-.06v.05s-.1.11-.1.11l-.11.02-.14-.07Z"/>
          <path class="cls-2" d="m22.59,32.6l.31.61-.13.07c-.13-.16-.28-.28-.45-.35-.09-.04-.18-.06-.28-.06-.05,0-.1,0-.15.02-.09.02-.16.05-.23.1-.06.05-.11.1-.13.16-.02.06-.03.11-.02.17.01.05.03.09.07.13.04.04.09.07.15.09.06.02.16.04.3.05l.42.03c.05,0,.13.01.23.03.1.02.18.05.24.08.06.03.11.08.16.14.04.06.07.13.09.2.04.17,0,.33-.12.49-.12.16-.29.26-.53.31-.08.02-.15.03-.23.03-.04,0-.07,0-.11,0-.1-.01-.22-.05-.35-.12l-.02.22-.11.02-.31-.73.13-.06c.08.13.18.23.28.31.11.08.22.13.33.16.06.01.12.02.18.02.05,0,.1,0,.15-.02.14-.03.26-.1.35-.22.07-.09.1-.19.08-.29-.02-.09-.07-.16-.15-.2-.08-.04-.21-.07-.39-.08l-.4-.02c-.22-.01-.39-.06-.5-.14-.11-.08-.18-.18-.2-.3-.02-.1-.01-.19.03-.29.04-.09.11-.18.21-.26.1-.08.23-.14.37-.17.07-.02.14-.02.21-.02.04,0,.09,0,.13,0,.08.01.16.04.24.08l.03-.16.11-.02m-.05-.24l-.11.02-.09.1s-.06-.01-.08-.02c-.06,0-.11-.01-.17-.01-.09,0-.18,0-.27.03-.17.04-.33.11-.46.21-.14.11-.24.23-.29.37-.06.14-.07.29-.04.43.04.19.14.34.3.45.03.02.06.04.09.06l-.12.05-.13.33.31.73.28.15.11-.02.12-.13c.06.02.11.03.17.04.05,0,.09,0,.14,0,.09,0,.18-.01.28-.03.29-.06.52-.2.67-.41.16-.22.22-.45.17-.69-.02-.11-.07-.21-.13-.3-.06-.09-.14-.16-.24-.21-.03-.01-.05-.03-.08-.04l.06-.03.1-.33-.31-.61-.28-.13h0Zm-.04,1.01s-.03,0-.04,0l-.42-.03c-.15-.01-.21-.03-.23-.03-.03-.01-.05-.02-.05-.03,0-.03.01-.05.05-.08.04-.03.08-.05.13-.06.03,0,.06-.01.1-.01.06,0,.12.01.18.04.1.04.2.11.28.2h0Zm-.17,1.1s-.08,0-.12-.01c-.08-.02-.16-.06-.24-.12-.08-.06-.15-.13-.21-.23.06,0,.13.02.19.02l.4.02c.2.01.27.04.29.05.03.05.03.07,0,.12-.05.07-.12.11-.21.13-.03,0-.06.01-.1.01h0Z"/>
        </g>
        <g>
          <path class="cls-1" d="m25.27,33.97c-.18,0-.33-.05-.45-.14-.12-.08-.22-.21-.3-.38l-.46-.95-.16-.17.06.11-.24-.02-.06-.12.06-.17.75-.36.17.06.06.12-.06.17-.13.07s.46.96.46.96c.08.17.15.24.19.28.05.04.12.07.21.07h.02c.11,0,.18-.02.25-.05.09-.04.16-.1.21-.18.05-.08.08-.15.08-.22,0-.05-.02-.15-.1-.33l-.41-.84.03-.18-.09.09-.12-.09v.14s-.17-.06-.17-.06l-.06-.12.06-.17.65-.31.17.06.06.12-.06.17-.11.07.46.98c.09.18.13.36.12.52-.01.16-.07.32-.17.45-.1.14-.23.25-.41.33-.15.07-.31.11-.47.11h-.04Z"/>
          <path class="cls-2" d="m25.78,31.28l.06.12-.04.02c-.07.04-.12.07-.13.12-.01.04,0,.1.04.18l.43.9c.08.16.11.31.1.45,0,.14-.06.27-.14.39-.09.12-.21.22-.36.29-.13.06-.27.1-.41.1-.01,0-.03,0-.04,0-.15,0-.28-.04-.39-.11-.1-.07-.19-.18-.26-.32l-.46-.95c-.03-.06-.06-.1-.08-.12-.02-.02-.05-.03-.07-.03,0,0,0,0,0,0-.03,0-.07.01-.12.04l-.07.03-.06-.12.75-.36.06.12-.05.02c-.06.03-.1.06-.12.08-.02.02-.02.04-.02.07,0,.03.02.07.05.14l.42.88c.08.16.15.26.22.32.07.06.17.09.28.1.02,0,.03,0,.05,0,.09,0,.19-.02.28-.06.11-.05.19-.13.26-.23.07-.1.1-.2.11-.29,0-.09-.04-.22-.11-.38l-.41-.84c-.03-.06-.06-.1-.08-.12-.03-.02-.05-.03-.08-.03,0,0,0,0,0,0-.03,0-.07.01-.12.04l-.05.03-.06-.12.65-.31m-.11-.23l-.65.31-.12.33.06.12.33.12h.02s.4.82.4.82c.08.18.09.25.09.27,0,.04-.02.1-.06.16-.04.06-.1.11-.16.14-.06.03-.11.04-.17.04-.09,0-.14-.02-.18-.05-.01-.01-.07-.06-.15-.23l-.41-.85h.02s.12-.34.12-.34l-.06-.12-.33-.12-.75.36-.12.33.06.12.33.12h.02s.45.92.45.92c.09.19.21.33.35.42.14.09.31.15.51.16,0,0,0,0,0,0,.22,0,.39-.04.56-.12.19-.09.35-.22.46-.37.11-.16.18-.33.19-.52.01-.18-.03-.38-.13-.58l-.43-.9s-.01-.02-.01-.02c0,0,0,.02-.01.03,0,.03-.02.04-.03.05l-.08-.24.15.2.12-.33-.06-.12-.33-.12h0Z"/>
        </g>
        <g>
          <path class="cls-1" d="m27,33.06l-.08-.11.03-.17.1-.08s-.01-.04-.07-.12c0,0-.86-1.2-.88-1.22l-.12.08-.17-.03-.08-.11.03-.17.54-.38h.12s1.33.56,1.33.56l-.46-.64c-.05-.07-.07-.08-.07-.08l-.12.06-.17-.03-.08-.11.03-.17.59-.42.17.03.08.1-.03.17-.09.07s.02.06.06.11l1.03,1.44-.03.17-.15.11h-.12s-1.68-.7-1.68-.7l.64.89c.04.05.06.09.08.1.03,0,.05-.01.13-.07l.17.03.08.11-.03.17-.59.43-.17-.03Z"/>
          <path class="cls-2" d="m27.55,30.01l.08.11-.03.02c-.05.04-.08.07-.1.09-.02.03-.02.07-.01.11,0,.04.03.09.07.15l1.03,1.44-.15.11-2.09-.89.9,1.25c.05.07.08.11.1.12.02.01.04.03.07.03,0,0,.02,0,.03,0,.02,0,.03,0,.05,0,.03,0,.07-.04.13-.08l.08.11-.59.43-.08-.11.03-.02c.06-.04.1-.08.11-.11.01-.03.02-.06,0-.1,0-.04-.04-.09-.09-.16l-.8-1.11c-.05-.07-.08-.11-.1-.12-.03-.02-.05-.03-.08-.03,0,0,0,0,0,0-.03,0-.08.03-.14.07l-.05.03-.08-.11.54-.38,1.74.74-.72-1c-.04-.06-.08-.1-.11-.12-.03-.01-.05-.02-.08-.02,0,0-.01,0-.02,0-.03,0-.07.02-.12.05l-.05.03-.08-.11.59-.42m-.15-.2l-.59.42-.06.35.08.11.35.06h.02s0,0,0,0l.2.27-.92-.39-.24.03-.54.38-.06.35.08.11.35.06h.02s0,0,0,0l.8,1.11s.02.02.02.03l-.08.35.08.11.35.06.59-.43.06-.35-.08-.11-.35-.06s-.01,0-.02.01c0,0,0-.01-.01-.02l-.38-.53,1.27.54.24-.03.15-.11.06-.35-1.03-1.44s-.01-.02-.02-.02l.08-.34-.08-.11-.35-.06h0Z"/>
        </g>
        <g>
          <path class="cls-1" d="m28.96,31.6l-.09-.1v-.18s.11-.1.11-.1c0,0-.01-.02-.06-.08l-.96-1.05c-.06-.07-.08-.08-.08-.08l-.14-.05.03.14h-.18s-.09-.1-.09-.1v-.18s.62-.56.62-.56h.18s.09.1.09.1v.18s-.1.09-.1.09c0,.01.01.04.08.11l.94,1.03.02.18.06-.11.14.05-.04-.14h.18s.09.1.09.1v.18s-.62.56-.62.56h-.18Z"/>
          <path class="cls-2" d="m28.21,29.37l.09.1-.05.04s-.07.08-.08.11c0,.03,0,.06,0,.09.01.03.05.08.11.14l.94,1.03c.05.05.09.08.12.1.02,0,.04.01.06.01,0,0,.02,0,.03,0,.03,0,.06-.03.11-.07l.05-.04.09.1-.61.56-.09-.1.05-.05s.07-.08.08-.1c0-.03,0-.05,0-.08,0-.03-.04-.07-.09-.12l-.96-1.05c-.05-.06-.09-.1-.12-.11-.02,0-.03-.01-.05-.01-.01,0-.02,0-.03,0-.03,0-.06.03-.11.07l-.05.05-.09-.1.61-.56m-.17-.18l-.61.56-.02.35.09.1.35.02h.01s.94,1.02.94,1.02h-.02s-.02.36-.02.36l.09.1.35.02.61-.56.02-.35-.09-.1-.35-.02h-.02s-.93-1-.93-1c0,0-.01-.01-.02-.02h.02s.02-.36.02-.36l-.09-.1-.35-.02h0Z"/>
        </g>
        <g>
          <path class="cls-1" d="m28.51,29.51l-.28.07-.1-.09v-.18s.51-.59.51-.59h.18s.1.07.1.07v.18s-.08.1-.08.1l1.26.44-.59-1.15-.26.05-.1-.09v-.18s.43-.5.43-.5h.18s.1.07.1.07v.18c-.04.09-.03.12,0,.2l.88,1.76-.02.14-.14.16-.14.04-1.94-.69Z"/>
          <path class="cls-2" d="m29.69,27.74l.1.09s-.06.08-.07.11c0,.03-.01.06,0,.08,0,.03.03.08.06.15l.88,1.76-.14.16-1.85-.66c-.06-.02-.1-.03-.12-.04-.01,0-.02,0-.03,0-.01,0-.03,0-.04,0-.02,0-.04.01-.07.03-.02.01-.05.04-.08.07l-.1-.09.52-.59.1.09-.04.05s-.06.07-.06.08c0,.02-.01.04,0,.06,0,.02.01.03.02.04.02.02.06.04.11.06l1.5.56-.74-1.42c-.03-.05-.05-.08-.07-.1-.02-.02-.03-.02-.05-.02,0,0-.01,0-.02,0-.02,0-.06.03-.1.08l-.05.05-.1-.09.44-.5m.17-.19l-.35.02-.44.5.02.35.1.09.27-.02.4.78-.82-.31-.02-.26-.1-.09-.35.02-.52.59.02.35.1.09.35-.02s0,0,0,0c0,0,.03,0,.05.02l1.85.66.27-.07.14-.16.04-.28-.88-1.76c-.03-.06-.04-.08-.04-.08h0s0-.33,0-.33l-.1-.09h0Z"/>
        </g>
        <g>
          <path class="cls-1" d="m31.3,28.97l-.04-.17.08-.13-1.31-.86s-.03,0-.04,0c-.05,0-.07.04-.11.09l-.17.04-.11-.07-.04-.17.96-1.47.13-.05.59.14.09.15-.03.14-.15.09c-.07-.02-.13-.02-.18-.02-.08,0-.13.02-.18.04-.05.02-.09.05-.12.08-.02.02-.07.08-.17.23l-.22.33.45.3.07-.11c.05-.08.06-.12.06-.14-.03-.08-.05-.11-.14-.17l-.07-.19.08-.13.17-.04.79.52.04.17-.08.13-.17.04c-.14-.09-.17-.1-.17-.1l-.1.02s-.03.02-.08.11l-.07.11.48.32.25-.28c.09-.13.14-.25.16-.34.02-.09.01-.18-.02-.28-.02-.08-.07-.17-.14-.27l.03-.17.12-.09.18.02.43.57v.14s-.99,1.52-.99,1.52l-.17.04-.11-.07Z"/>
          <path class="cls-2" d="m30.63,26.28l.59.14-.03.14c-.08-.02-.15-.03-.21-.03-.01,0-.02,0-.03,0-.07,0-.13.02-.19.05-.06.03-.11.06-.16.1-.04.04-.1.12-.19.25l-.29.44.66.43.14-.22c.05-.08.08-.15.08-.21,0-.06-.02-.11-.05-.15-.02-.03-.07-.07-.15-.12l-.03-.02.08-.13.79.52-.08.13-.07-.04c-.06-.04-.11-.06-.14-.07-.02,0-.03,0-.05,0s-.04,0-.06,0c-.04,0-.07.02-.1.05-.03.02-.06.07-.11.13l-.14.22.59.38c.06.04.1.06.12.06,0,0,0,0,.01,0,.01,0,.02,0,.03,0,.01,0,.04-.04.08-.1l.18-.27c.1-.15.16-.28.18-.39.02-.11.01-.22-.02-.33-.03-.09-.08-.19-.15-.31l.12-.09.43.57-1,1.52-.11-.07.03-.05c.04-.06.06-.1.06-.12,0-.03,0-.06-.02-.09-.01-.02-.05-.05-.1-.09l-1.24-.82c-.06-.04-.1-.06-.12-.06,0,0,0,0,0,0-.03,0-.05,0-.08.03-.02.01-.05.06-.11.15l-.11-.07.96-1.47m.06-.24l-.27.11-.96,1.47.07.35.11.07.35-.07s0-.01.01-.02l1.17.77v.02s.06.35.06.35l.11.07.35-.07,1-1.52v-.29s-.44-.57-.44-.57l-.35-.05-.12.09-.06.34c.08.12.11.2.12.24.02.08.03.15.01.22l-.05-.25-.72-.48s.04,0,.06.01l.3-.19.03-.14-.18-.3-.59-.14h0Zm-.22,1.26l.14-.21.04.2c.09.06.11.08.11.08,0,0,0,0,0,0,0,0,0,.02-.04.07h0s-.24-.15-.24-.15h0Zm.79.52h0c.03-.05.04-.07.05-.08,0,0,.03.02.06.04l.07.04.31-.07s-.03.05-.04.07l-.13.2-.32-.21h0Z"/>
        </g>
        <g>
          <path class="cls-1" d="m32.61,26.95l-.06-.17.06-.13s-1.4-.67-1.4-.67l-.22-.04.11.05-.2.14-.12-.06-.06-.17.48-1.01c.1-.21.19-.35.29-.44.1-.1.22-.15.34-.18h.1c.09,0,.18.01.27.06.12.06.22.14.29.25.07.11.1.24.1.38,0,.07-.01.15-.04.24,0,0,.75-.19.77-.19l.12-.12.18-.09.12.06.06.17-.21.44-.09.07-1.21.26-.04.08s.57.27.59.28l.15-.02-.09-.1.17-.06.12.06.06.17-.35.75-.17.06-.12-.06Zm-.71-1.23l.14-.29c.08-.16.1-.24.1-.26.01-.06,0-.12-.02-.17-.02-.05-.07-.09-.14-.12-.05-.02-.09-.03-.13-.03v-.12l-.02.13s-.08.02-.12.05c-.02.02-.07.07-.13.19l-.19.39.51.24Z"/>
          <path class="cls-2" d="m31.93,24.4c.07,0,.15.02.22.05.1.05.18.12.23.21.05.09.08.19.08.31,0,.12-.04.26-.11.42l.87-.22c.07-.02.12-.03.14-.04.04-.02.08-.04.11-.07.03-.03.06-.07.08-.11l.02-.03.12.06-.21.44-1.27.27-.12.25.6.29c.07.03.11.05.13.05,0,0,.02,0,.02,0,.03,0,.05,0,.07-.02.02-.02.05-.06.08-.12l.02-.05.12.06-.35.75-.12-.06.03-.07c.02-.05.04-.09.04-.11,0-.02,0-.04-.01-.06,0-.02-.03-.04-.05-.06,0,0-.06-.03-.14-.07l-1.27-.61c-.06-.03-.1-.04-.13-.04,0,0,0,0,0,0-.03,0-.05,0-.07.02-.02.01-.04.05-.07.1l-.04.08-.12-.06.48-1.01c.09-.19.18-.33.27-.41.09-.08.18-.13.28-.14.03,0,.05,0,.08,0m.02,1.48l.19-.4c.06-.14.1-.24.11-.3.01-.09,0-.17-.03-.24-.04-.07-.1-.13-.2-.18-.07-.03-.13-.05-.19-.05-.01,0-.02,0-.03,0-.07,0-.13.03-.18.08-.05.04-.11.12-.16.23l-.24.51.73.35m-.02-1.73s-.08,0-.12.01c-.15.02-.28.09-.41.21-.11.1-.22.26-.32.48l-.48,1.01.12.33.12.06.33-.12v-.02s1.25.59,1.25.59c0,0,.01,0,.02.01v.02s.11.33.11.33l.12.06.33-.12.35-.75-.12-.33-.12-.06-.33.12h0s-.25-.1-.25-.1l1-.21.17-.14.21-.44-.12-.33-.12-.06-.33.12-.04.07s-.03.02-.05.03c0,0-.04.01-.1.02l-.46.11s0-.05,0-.07c0-.16-.04-.31-.12-.44-.08-.13-.19-.23-.34-.3-.11-.05-.22-.08-.33-.08h0Zm-.38,1.26l.13-.28c.05-.11.09-.14.09-.15.02-.01.03-.02.05-.02,0,0,0,0,0,0,.03,0,.06,0,.09.02.04.02.07.04.08.07,0,.02.02.04.01.09,0,.01-.01.07-.09.23l-.08.18-.28-.13h0Z"/>
        </g>
        <g>
          <path class="cls-1" d="m33.04,24.56l-.11-.14.02-.15.12-.11c.14,0,.26-.03.37-.08.11-.04.2-.1.26-.18.07-.07.12-.15.14-.23.04-.11.04-.22,0-.33-.04-.1-.09-.13-.13-.14l-.21-.1.06.11s-.12.09-.23.26l-.23.33c-.14.21-.28.34-.43.4-.08.04-.17.06-.26.06-.06,0-.13-.01-.19-.03-.12-.04-.22-.11-.29-.21-.08-.1-.12-.23-.14-.38-.02-.15,0-.3.05-.45.04-.13.1-.24.19-.35.03-.03.06-.06.09-.09h0s-.04-.14-.04-.14l.04-.11.13-.08.68.05.12.13v.15s-.11.12-.11.12c-.18.02-.34.09-.47.18-.1.08-.17.17-.21.29-.02.07-.03.14-.02.19,0,.06.02.1.04.13l.03.18.08-.11c.07-.01.1-.03.14-.06.03-.02.08-.08.17-.21l.24-.35s.08-.11.16-.19c.08-.09.15-.15.22-.19.08-.04.16-.07.25-.08.02,0,.03,0,.04,0,.1,0,.17.01.23.03.2.07.34.21.43.43.09.21.09.45,0,.7-.04.13-.1.24-.17.33-.04.06-.1.11-.17.16l.04.03.04.14-.03.1-.14.08-.78-.11Z"/>
          <path class="cls-2" d="m32.22,22.55l.68.05v.15c-.21.03-.39.1-.54.21-.12.09-.21.21-.26.35-.03.09-.04.17-.03.25,0,.08.03.14.07.19.04.05.08.08.13.1.03,0,.05.01.08.01.02,0,.04,0,.07,0,.05-.01.1-.04.15-.08.05-.04.11-.12.19-.23l.24-.35s.08-.1.15-.18c.07-.08.13-.13.19-.17.06-.04.13-.06.2-.06.02,0,.04,0,.05,0,.06,0,.11,0,.17.03.16.05.28.17.36.35.08.18.08.39,0,.61-.04.12-.09.22-.15.3-.06.08-.16.16-.28.24l.17.13-.03.1-.78-.11.02-.15c.15,0,.29-.03.41-.08.12-.05.22-.12.31-.2.08-.08.14-.18.17-.28.05-.14.04-.28,0-.41-.04-.11-.11-.18-.21-.22-.04-.01-.07-.02-.1-.02-.05,0-.1.01-.15.04-.08.05-.17.14-.27.29l-.23.33c-.13.19-.25.31-.37.36-.07.03-.14.05-.21.05-.05,0-.1,0-.15-.03-.09-.03-.17-.09-.23-.17s-.1-.19-.12-.32c-.02-.13,0-.26.04-.4.04-.11.09-.22.17-.31.05-.06.11-.12.18-.16l-.12-.11.03-.11m.02-.25l-.26.17-.03.11.03.13s-.04.04-.06.06c-.09.11-.16.24-.21.39-.06.17-.07.34-.05.51.02.17.08.32.17.44.09.12.21.21.35.25.08.03.15.04.23.04.1,0,.21-.02.31-.07.03-.01.06-.03.09-.05v.13s.2.28.2.28l.78.11.27-.17.03-.1-.05-.17s.08-.08.12-.12c.08-.1.15-.23.2-.37.09-.28.09-.55,0-.79-.1-.25-.28-.42-.51-.5-.08-.03-.16-.04-.24-.04-.03,0-.05,0-.08,0-.11.01-.21.04-.3.1-.02.01-.05.03-.07.05v-.07s-.23-.26-.23-.26l-.68-.05h0Zm.13,1.31s-.04-.04-.04-.08c0-.04,0-.09.02-.14.03-.09.08-.17.17-.22.09-.07.2-.11.32-.14,0,.01-.02.02-.02.03l-.24.35c-.09.13-.13.17-.15.18-.03.02-.04.03-.05.03h0Zm.72.43s.08-.1.12-.16l.23-.33c.11-.17.18-.21.19-.22.06,0,.08,0,.1.07.03.08.03.16,0,.25-.02.07-.06.13-.12.19-.06.06-.13.11-.22.15-.09.04-.19.06-.3.06h0Z"/>
        </g>
        <g>
          <path class="cls-1" d="m34.25,22.77l-.09-.15.02-.14s-.03-.01-.1-.03l-1.39-.32c-.07-.02-.1-.02-.11-.02l-.03.13-.15.09-.13-.03-.09-.15.19-.8.15-.09.13.03.09.15-.02.13s.03.02.13.05l1.35.32.12.14-.02-.13.03-.13.15-.09.13.03.09.15-.19.8-.15.09-.13-.03Z"/>
          <path class="cls-2" d="m32.49,21.39l.13.03v.06c-.03.06-.03.1-.02.13.01.03.03.05.06.07.03.02.08.04.17.06l1.35.31s.09.02.12.02c.01,0,.02,0,.03,0,.03,0,.06-.02.08-.04.02-.02.03-.06.05-.12v-.06s.14.03.14.03l-.19.8-.13-.03.02-.07c.01-.06.02-.1,0-.13,0-.03-.02-.05-.05-.07-.02-.02-.07-.03-.14-.05l-1.39-.32c-.06-.01-.11-.02-.14-.02,0,0-.02,0-.02,0-.03,0-.05.02-.07.04-.02.02-.03.06-.05.12l-.02.07-.13-.03.19-.8m.06-.24l-.3.19-.19.8.19.3.13.03.3-.19v-.02s1.37.32,1.37.32v.02s.18.3.18.3l.13.03.3-.19.19-.8-.19-.3-.13-.03-.3.19v.02s-1.34-.31-1.34-.31c0,0-.02,0-.03,0v-.02s-.18-.3-.18-.3l-.13-.03h0Z"/>
        </g>
        <g>
          <path class="cls-1" d="m32.42,21.29l-.07-.13.02-.11.08-.08.17-1.19-.06-.07.02-.11.1-.11.66-.14.15.1.03.15-.09.15c-.15.04-.26.09-.33.15-.06.06-.1.15-.12.26l1.49.22.1.13v-.13s.03-.07.04-.14l.14-.11.13.02.11.14-.12.82-.14.11-.13-.02-.11-.14c0-.07.01-.12.01-.14,0,0,0,0,0,0,0,0-.03-.01-.1-.02l-1.51-.21c0,.08,0,.16,0,.21.01.05.05.11.09.16.05.06.12.11.21.16l.05.17-.07.13-.17.05-.6-.31Z"/>
          <path class="cls-2" d="m33.35,19.49l.03.14c-.18.04-.31.1-.39.19-.08.08-.13.19-.15.33,0,.06-.01.09,0,.11,0,.01,0,.02.02.03.01,0,.05.01.11.02l1.48.21s.09.01.12.01c.01,0,.02,0,.03,0,.03,0,.05-.01.06-.02.02-.01.03-.03.04-.06,0-.02.02-.08.03-.17l.13.02-.12.82-.13-.02c.01-.09.02-.15.01-.17,0-.04-.02-.07-.05-.08-.03-.02-.08-.03-.16-.05l-1.51-.21s-.06,0-.07,0c0,0-.01,0-.02,0-.01,0-.02.01-.03.02,0,.01-.01.04-.02.08-.02.11-.01.2,0,.27.02.07.06.14.12.21.06.07.14.13.25.19l-.07.13-.6-.31.02-.11h.07s.18-1.32.18-1.32l-.07-.02.02-.11.66-.14m-.05-.24l-.66.14-.2.21-.02.11.06.1-.16,1.16-.08.08-.02.11.13.26.6.31.34-.11.07-.13-.1-.33c-.08-.04-.14-.09-.18-.13-.03-.04-.06-.08-.07-.11,0,0,0-.02,0-.04l1.35.19s0,.01,0,.02l.21.28.13.02.28-.21.12-.82-.21-.28-.13-.02-.28.21s0,.02,0,.03l-1.35-.19s.03-.06.05-.08c.03-.03.1-.08.27-.12l.19-.29-.03-.14-.3-.19h0Z"/>
        </g>
        <g>
          <path class="cls-1" d="m32.78,19.71l-.12-.13v-.81s.14-.12.14-.12h.13s.12.13.12.13v.15s.61-.38.61-.38l-.63-.37-.1.19h-.13s-.12-.13-.12-.13v-.67s.14-.12.14-.12h.13s.12.13.12.13l-.12.13h.13s1.05.65,1.05.65h.58s0-.06,0-.16l.13-.12h.13s.12.13.12.13v.84s-.14.12-.14.12h-.13s-.12-.13-.12-.13v-.15s-.58,0-.58,0l-.96.54c-.08.04-.1.06-.1.07,0,0,0,.03-.01.11l-.13.12h-.13Z"/>
          <path class="cls-2" d="m32.82,17.58h.13c0,.06,0,.1,0,.13,0,.03.02.05.04.07.02.02.05.04.11.08l.96.6h.54s.02,0,.02,0c.07,0,.11,0,.13-.02.02-.01.04-.03.05-.06.01-.03.02-.09.02-.19h.13s-.01.85-.01.85h-.13s0-.07,0-.07c0-.07,0-.12-.02-.14-.01-.02-.03-.04-.06-.06-.02,0-.07-.02-.14-.02h-.49s-1.02.54-1.02.54c-.08.04-.13.08-.15.11-.02.03-.03.09-.03.17h-.13s.01-.81.01-.81h.13s0,.09,0,.09c0,.06,0,.09.01.11.01.02.03.02.05.02,0,0,0,0,0,0,.02,0,.05,0,.08-.03,0,0,.02-.01.04-.02l.79-.41-.8-.48s-.05-.03-.06-.03c-.01,0-.02,0-.03,0,0,0,0,0,0,0-.01,0-.03,0-.04.01-.01,0-.02.02-.02.04,0,.01,0,.04,0,.09v.08s-.13,0-.13,0v-.67m.02-.25l-.25.25v.67s.23.25.23.25h.13s.15-.14.15-.14l.31.18-.3.16-.15-.16h-.13s-.25.24-.25.24v.81s.23.25.23.25h.13s.25-.24.25-.24c0-.02,0-.03,0-.04.01,0,.03-.01.04-.03l.97-.52h.39s0,.03,0,.03l.25.25h.13s.25-.24.25-.24v-.84s-.23-.25-.23-.25h-.13s-.25.24-.25.24c0,0,0,.02,0,.03h-.45s-.9-.57-.9-.57c-.01,0-.03-.02-.04-.02,0-.01,0-.02,0-.04l-.25-.26h-.13Z"/>
        </g>
      </g>
      <g>
        <path class="cls-1" d="m18.67,37.21C8.44,37.21.12,28.9.12,18.67S8.44.13,18.67.13s18.54,8.32,18.54,18.54-8.32,18.54-18.54,18.54ZM18.67.81C8.82.81.81,8.82.81,18.67s8.01,17.85,17.85,17.85,17.85-8.01,17.85-17.85S28.52.81,18.67.81Z"/>
        <path class="cls-2" d="m18.67.25c10.16,0,18.42,8.26,18.42,18.42s-8.26,18.42-18.42,18.42S.25,28.83.25,18.67,8.51.25,18.67.25m0,36.4c9.91,0,17.98-8.07,17.98-17.98S28.58.69,18.67.69.69,8.76.69,18.67s8.07,17.98,17.98,17.98M18.67,0C8.38,0,0,8.38,0,18.67s8.38,18.67,18.67,18.67,18.67-8.37,18.67-18.67S28.96,0,18.67,0h0Zm0,36.4C8.89,36.4.94,28.45.94,18.67S8.89.94,18.67.94s17.73,7.95,17.73,17.73-7.95,17.73-17.73,17.73h0Z"/>
      </g>
      <g>
        <g>
          <path class="cls-1" d="m6.56,11.68c-.05,0-.18-.03-.27-.06l-.09-.14c.07-.4.1-.45.11-.46.02-.04.06-.18.03-.22-.02-.03-.06-.07-.09-.1-.08-.08-.18-.18-.17-.3,0-.09,0-.17.02-.23-.09.18-.19.37-.21.42-.06.11-.2.17-.32.17s-.2-.05-.25-.14c-.08-.15-.02-.29.03-.39.02-.03.03-.06.04-.1.04-.14.3-.57.4-.64.02-.02.09-.1.16-.21-.05.06-.12.12-.19.17-.1.07-.19.1-.29.1-.11,0-.21-.05-.28-.14l-.04-.17s.07-.26.23-.44l.08-.09c.12-.13.14-.16.11-.21-.04-.07-.16-.08-.23-.08h0c-.15,0-.31-.05-.36-.18-.02-.05-.08-.23,0-.33l.13-.07.23.09c.14.07.32.16.42.19h.11c.06-.09.14-.13.23-.13.05,0,.11.01.18.08.08.08.13.21.15.29,0-.02,0-.03,0-.05.01-.1.02-.2.1-.24.19-.13.25-.17.32-.17.1,0,.22.07.26.19.02.08.03.33-.07.44-.02.02-.04.11-.04.13,0,0,0,0,0,0,.03,0,.15.06.25.1.07.04.14.07.16.08.05.03.5.22.7.27.05.01.1.03.16.05.08.03.16.06.21.06,0-.03.04-.22-.36-.52l-.05-.23.12-.07.14.05c.25.28.39.39.48.46.05.04.09.07.11.1.05.06.07.12.09.17.02.05.03.09.07.13.08.1.13.25.07.37-.04.08-.12.12-.21.12-.1,0-.24-.04-.39-.08-.13-.03-.28-.07-.34-.07h0c-.13,0-.71-.23-1.08-.4.06.04.09.12.09.22,0,.14-.08.28-.14.38-.02.06,0,.15.03.21.03-.05.06-.11.06-.14,0-.12.1-.2.2-.2l.17.14s0,.13-.07.46c-.02.1-.04.19-.04.22,0,.08-.08.16-.31.36-.06.05-.11.1-.13.12h0s-.02.04-.1.15c-.03.04-.09.11-.1.14.02.02-.06.3-.17.34h-.05Zm-.33-1.65c.11.02.15.09.21.19.03.05.07.11.1.15.04.04.18.18.2.2.04-.05.07-.07.09-.1-.15-.26-.37-.56-.42-.6,0,0,0,.01,0,.01-.01,0-.03,0-.05-.01-.04,0-.08-.02-.11-.02-.02.03-.06.11-.11.21.02-.02.05-.03.09-.03Zm.37-.73s.03.08.06.14c0,.01.01.03.02.04.01-.02.02-.04.03-.05.07-.12.1-.16.14-.19l.12-.02s.04,0,.06,0c-.11-.05-.19-.09-.21-.11-.04-.03-.1-.06-.13-.06l-.08.25Z"/>
          <path class="cls-2" d="m5.09,7.97s.02,0,.04,0c.12.06.44.22.58.27.05.02.09.02.12.02.06,0,.09-.02.13-.07.03-.05.08-.08.13-.08.03,0,.06.01.09.04.08.08.14.28.14.28,0,0,.09.05.15.05.02,0,.04,0,.05-.02.04-.06.03-.27.07-.29.05-.03.21-.16.26-.16s.12.04.14.1c.02.06,0,.26-.05.32-.05.06-.09.23-.05.27.04.04.4.2.47.24.06.04.52.23.72.28.14.04.3.11.4.11.05,0,.08-.02.1-.07.04-.15.02-.38-.38-.68,0,0-.04-.08,0-.08.01,0,.04,0,.07.03.33.38.49.46.57.54.07.08.06.17.16.29.09.12.1.29-.04.29,0,0,0,0-.01,0-.15,0-.58-.15-.71-.15,0,0,0,0-.01,0,0,0,0,0,0,0-.14,0-1.23-.47-1.31-.53-.05-.04-.14-.09-.21-.09-.04,0-.08.02-.1.07-.05.13-.1.28-.1.28,0,0,.02.12.07.22.05.09.06.2.1.2,0,0,.01,0,.02,0,.06-.05.19-.32.23-.34.01,0,.03-.01.06-.01.06,0,.13.03.13.15,0,.17-.18.38-.18.44s.13.33.18.34c0,0,0,0,0,0,.06,0,.2-.24.2-.32,0-.05.04-.08.08-.08.02,0,.04.01.04.03,0,.05-.11.57-.12.65,0,.08-.42.4-.42.44s-.23.27-.22.32c0,.05-.06.24-.09.25,0,0,0,0,0,0-.05,0-.24-.06-.24-.06,0,0,.06-.38.09-.42.03-.05.1-.25.03-.36-.07-.11-.25-.22-.24-.32,0-.1,0-.25.03-.25,0,0,0,0,0,0,.05,0,.13.2.22.3.09.1.24.22.24.25,0,.01.01.02.03.02.03,0,.09-.02.13-.08.07-.1.18-.13.11-.24-.07-.11-.43-.64-.48-.64,0,0,0,0,0,0,0,0,0,0,0,0-.04,0-.14-.04-.22-.04-.04,0-.07,0-.09.04-.06.1-.35.66-.39.76-.03.05-.12.1-.21.1-.06,0-.11-.02-.14-.07-.07-.13.05-.26.08-.38.04-.13.28-.52.35-.57.06-.05.38-.48.39-.75,0,0,0-.12-.05-.12-.01,0-.02,0-.04.02-.09.07-.2.41-.48.6-.08.06-.16.08-.22.08-.14,0-.21-.11-.2-.14,0,0,.06-.24.2-.39.14-.16.3-.27.21-.44-.07-.13-.24-.15-.34-.15-.03,0-.06,0-.07,0-.05,0-.16-.03-.18-.1-.02-.06-.06-.23.01-.23m0-.25l-.24.12c-.1.15-.04.36,0,.44.07.19.29.26.42.26h.07c.06,0,.1,0,.12.01-.02,0-.06.04-.08.07-.03.03-.06.06-.08.09-.17.19-.25.46-.26.49-.03.08,0,.18.06.27.09.12.23.19.38.19,0,0,.01,0,.02,0-.1.16-.19.33-.21.42,0,.03-.02.05-.03.08-.05.1-.14.3-.03.5.07.13.2.2.36.2s.35-.07.43-.24c0,0,0-.02.01-.03.04.07.1.13.15.17.03.03.06.05.08.08,0,0-.02.07-.04.1-.02.03-.05.08-.12.5l.18.28c.23.07.29.07.31.07h.09c.15-.06.23-.28.26-.43.02-.03.05-.06.08-.1.05-.07.09-.12.12-.17.02-.02.06-.06.1-.09.22-.2.33-.31.35-.44,0-.03.02-.12.04-.21.08-.37.09-.44.08-.51-.02-.14-.15-.24-.29-.24-.02,0-.03,0-.04,0,0-.04.02-.08.02-.12.35.15.73.29.85.29.06,0,.22.04.32.07.16.04.3.07.39.08,0,0,0,0,0,0,.17,0,.29-.07.34-.19.07-.15.04-.35-.08-.5-.02-.03-.03-.06-.05-.1-.02-.06-.05-.13-.12-.21-.03-.03-.07-.07-.13-.11-.09-.07-.22-.18-.44-.42l-.06-.05c-.05-.03-.12-.07-.21-.07l-.23.13c-.05.09-.05.2,0,.32l.07.08c.09.07.18.15.24.23-.05-.02-.09-.03-.14-.04-.18-.05-.61-.23-.67-.26-.02-.01-.09-.05-.17-.08-.05-.02-.1-.05-.15-.07.11-.15.1-.43.07-.52-.05-.18-.23-.28-.38-.28-.11,0-.2.06-.34.16l-.05.03s-.05.04-.07.06c-.01-.01-.02-.03-.04-.04-.1-.1-.2-.12-.27-.12-.11,0-.21.05-.29.14-.13-.05-.29-.12-.41-.18l-.15-.07-.14-.03h0Z"/>
        </g>
        <g>
          <path class="cls-1" d="m6.26,8.02c-.18-.13-.38-.27-.36-.45.01-.18.38-.28.53-.28.18,0,.26.1.28.15.09.2.08.29-.05.4l-.09.09c-.05.06-.1.13-.2.13l-.12-.04Z"/>
          <path class="cls-2" d="m6.43,7.41c.08,0,.14.02.17.08.09.19.05.19-.05.27-.07.07-.12.16-.17.16-.01,0-.03,0-.04-.02-.08-.06-.32-.21-.31-.34,0-.05.23-.16.41-.16m0-.25c-.18,0-.64.11-.66.4-.02.25.23.42.37.53l.23.1c.16,0,.24-.11.3-.18.01-.02.03-.04.04-.05.23-.19.2-.36.1-.57-.07-.14-.21-.22-.4-.22h0Z"/>
        </g>
      </g>
      <g>
        <g>
          <path class="cls-1" d="m10.78,4.46c-.13,0-.43-.08-.49-.1l-.08-.07-.09-.22.06-.16c.03-.1.08-.21.2-.23h0c.13,0,.26.05.38.11.19.05.43.1.4.34-.02.19-.16.31-.37.33h-.03Z"/>
          <path class="cls-2" d="m10.42,3.8c.09,0,.25.07.33.11.08.04.33.04.31.2-.02.16-.15.21-.25.22,0,0-.01,0-.02,0-.12,0-.45-.09-.45-.09l-.09-.22c.06-.03.07-.2.16-.21,0,0,.01,0,.02,0"/>
        </g>
        <g>
          <path class="cls-1" d="m10.71,5.68c-.08-.02-.27-.05-.35-.05h0c-.16,0-.23-.16-.24-.2-.05-.15.01-.23.04-.25.06-.05.2-.15.37-.15.09,0,.22.03.31.18.07.11.16.27.09.39l-.17.09h-.05Z"/>
          <path class="cls-2" d="m10.53,5.15c.07,0,.15.03.21.12.14.21.1.29.03.29,0,0-.02,0-.03,0-.08-.02-.28-.06-.37-.06-.02,0-.03,0-.04,0,0,0,0,0,0,0-.04,0-.15-.19-.09-.24.06-.05.17-.12.29-.12m0-.25c-.21,0-.38.13-.45.18-.11.09-.14.24-.08.39.02.07.12.29.33.29h.04s0,0,0,0c.05,0,.22.03.32.05h.08c.12,0,.22-.05.28-.15.11-.2-.04-.44-.09-.51-.1-.15-.25-.24-.42-.24h0Z"/>
        </g>
        <g>
          <path class="cls-1" d="m11.13,7.43c-.08,0-.52-.17-.55-.4,0-.05.06-.31.22-.59.15-.27.41-.68.41-.68l.2-.02s.18.23.03.85c-.06.26-.1.43-.12.54-.03.18-.06.29-.19.29Z"/>
          <path class="cls-2" d="m11.31,5.83s.14.15,0,.73c-.14.58-.13.74-.18.74s-.41-.15-.43-.3c0,0,.05-.24.2-.51.15-.26.41-.67.41-.67m.18-.17l-.39.04s-.26.41-.41.68c-.17.3-.23.57-.23.58v.09c.04.32.55.51.67.51.24,0,.28-.22.31-.4.02-.11.05-.28.12-.54.16-.64.01-.89-.06-.96h0Z"/>
        </g>
        <g>
          <path class="cls-1" d="m11.53,6.76l-.09-.11c-.03-.11.07-.23.27-.46l.07-.08c.22-.28.47-.63.53-.75,0,0-.01,0-.02,0-.02,0-.17-.03-.17-.03-.25-.05-.62-.14-.6-.38.02-.21.31-.31.51-.31.19.02.32.07.43.12.02,0,.05.02.08.03h0c.11-.51.12-.69.1-.76,0,.02-.03.03-.05.05l-.42.35s-.14.07-.23.07l-.19-.15c.08-.22.44-.91.8-.94h.01c.4,0,.55.18.61.25.08.09.04.23-.02.42-.03.09-.06.2-.06.25,0,.11-.04.27-.08.41-.02.07-.03.13-.04.16,0,0,0,0,0,0,.02,0,.07.03.13.04.08.02.18.06.27.09.08.03.15.06.2.07.1.02,1.22.05,1.32.05l.15.11c.04.12-.03.28-.16.39-.18.15-.72.28-.88.3h0c-.18,0-.54-.13-.97-.28-.13-.05-.23-.09-.27-.09,0,0,0,0,0,0,0,0-.08.11-.17.24-.12.18-.26.39-.28.43-.05.09-.56.53-.75.53h-.06Z"/>
          <path class="cls-2" d="m12.65,3.54c.26,0,.39.14.44.21.06.07-.1.42-.1.59s-.13.55-.11.58c.02.03.08.11.23.15.15.04.38.14.48.16.09.02,1.28.05,1.34.05s.05.16-.09.28c-.14.12-.64.25-.81.27,0,0,0,0-.01,0-.2,0-1.13-.38-1.19-.38,0,0,0,0,0,0,0,0,0,0-.01,0-.02,0-.04,0-.06,0-.02,0-.03,0-.04.03-.03.05-.43.63-.47.7-.04.07-.51.47-.65.47,0,0-.01,0-.02,0-.1-.04.23-.37.31-.46.07-.09.56-.73.56-.83s-.06-.09-.3-.14c-.23-.05-.51-.12-.5-.24,0-.11.21-.2.39-.2.02,0,.05,0,.07,0,.16.03.46.17.52.17,0,0,.01,0,.01,0,0-.05.21-.81.1-1-.01-.03-.04-.04-.06-.04-.07,0-.17.09-.17.09l-.42.35s-.09.05-.15.05c-.03,0-.06-.01-.06-.05,0,0,.38-.76.69-.79.03,0,.05,0,.08,0m0-.25s-.07,0-.1,0c-.41.04-.76.67-.89.93l-.02.16c.02.08.06.14.11.18-.18.06-.34.19-.35.38-.03.35.42.45.69.51h.01c-.1.16-.27.39-.42.58-.01.02-.04.04-.07.08-.21.24-.34.39-.3.57l.17.2.11.02c.26,0,.8-.49.86-.6.03-.04.16-.25.28-.42.04-.06.08-.11.11-.16.03.02.1.04.18.07.54.2.83.29.98.29.2-.02.78-.15.99-.33.18-.15.26-.37.2-.53l-.27-.19c-.1,0-1.18-.03-1.3-.05-.03,0-.09-.03-.17-.06-.1-.04-.2-.08-.29-.1,0,0-.02,0-.02,0,0-.01,0-.03.01-.04.05-.18.08-.33.08-.44,0-.04.03-.15.05-.22.06-.21.11-.39,0-.53-.06-.07-.25-.29-.63-.29h0Zm-.42,1.26l.03-.02.26-.21c-.01.08-.03.18-.06.31-.07-.03-.15-.06-.23-.08h0Z"/>
        </g>
      </g>
      <g>
        <g>
          <path class="cls-1" d="m25.06,3.82c-.25,0-.29-.19-.29-.27-.03-.12-.02-.42.25-.58.1-.06.18-.09.25-.09.13,0,.2.09.22.18,0,0,0,0,0,0,0,0,.09.16,0,.39-.09.21-.28.38-.43.38Z"/>
          <path class="cls-2" d="m25.27,3.01c.08,0,.09.07.09.07,0,0,.08.13,0,.32-.08.19-.24.3-.31.3s-.16-.02-.17-.16c0,0-.07-.31.19-.47.09-.05.15-.07.19-.07m0-.25c-.1,0-.2.03-.32.1-.34.2-.35.56-.31.74,0,.2.16.35.41.35.2,0,.43-.2.54-.45.09-.21.06-.39,0-.51-.04-.12-.15-.23-.33-.23h0Z"/>
        </g>
        <g>
          <path class="cls-1" d="m25.53,3.84c-.08-.14-.08-.31-.04-.41l.11-.11.09-.08s.08-.03.14-.03l.16.14s0,.02.01.04h.08l.06.23c-.05.03-.14.1-.17.14-.04.07-.14.2-.27.2l-.19-.12Z"/>
          <path class="cls-2" d="m25.84,3.33s.04,0,.04.02c0,.04.05.16.05.16h.16s-.16.09-.21.18c-.04.06-.1.14-.16.14-.03,0-.05-.02-.08-.06-.07-.13-.06-.33,0-.35.05-.02.09-.08.09-.08,0,0,.06-.02.1-.02m0-.25c-.07,0-.15.02-.18.03l-.11.09c-.05.02-.13.07-.17.18-.05.13-.05.35.05.52.07.12.17.18.29.18.14,0,.27-.09.38-.26.02-.02.08-.07.12-.1l-.08-.31h.02s-.03-.06-.03-.1c0-.1-.1-.24-.28-.24h0Z"/>
        </g>
        <g>
          <path class="cls-1" d="m26.79,5.37s-.24-.02-.47-.17c-.17-.11-.35-.17-.38-.17l-.09-.05-.04-.16.14-.11s.13.01.25.01.15-.01.15-.01c-.03-.02-.02-.17-.47-.46,0,0,0,0,0,0-.03,0-.65-.12-.74-.13h0c-.09,0-.16-.01-.16-.01-.15-.05-.31-.11-.35-.11-.09,0-.28-.05-.32-.06l-.09-.14v.13c-.06.05-.21.18-.21.18l-.1.03-.2-.12c-.02-.17.06-.51.45-.57.22,0,.39.07.52.13.06.02.11.05.15.05.13.02.66.13.82.17.05.01.12.02.2.02.23,0,.46-.05.6-.13.01-.01.16-.11.29-.11l.19.11c.09.17.01.36,0,.38l-.1.08c-.19.02-.43.04-.47.06.18.04.29.12.29.24.01.06.2.47.25.53.05.02.06.11.02.3l-.13.1Z"/>
          <path class="cls-2" d="m24.19,3.58c.28,0,.49.16.62.18.13.02.65.13.82.16.05.01.13.02.22.02.2,0,.47-.04.67-.14,0,0,.13-.1.23-.1.03,0,.06.01.08.04.06.12,0,.27,0,.27,0,0-.43.04-.5.06-.07.03-.08.12-.04.15.05.03.25.14.25.21s.25.6.27.61c.03.02,0,.19,0,.19,0,0-.21-.02-.41-.15-.2-.13-.4-.19-.43-.19s-.02-.06-.02-.06c0,0,.13.01.26.01.12,0,.23-.01.23-.06,0-.1.05-.3-.49-.64,0,0-.72-.15-.8-.15s-.14,0-.14,0c0,0-.28-.11-.37-.11s-.28-.05-.28-.05c0,0-.06-.02-.12-.02-.03,0-.06,0-.08.02-.06.05-.21.19-.21.19h-.09s-.04-.38.35-.44m0-.25h-.05c-.45.07-.58.46-.56.71l.22.22h.09s.2-.06.2-.06c0,0,.09-.08.15-.14h.03c.07.03.24.07.35.07.03,0,.16.05.28.09h.05s.08.03.18.03c.05,0,.4.07.71.13.14.09.22.16.27.21-.08,0-.15-.01-.15-.01l-.28.21c0,.06-.01.17.07.26l.2.09s.15.06.3.15c.25.16.5.18.53.18l.27-.2c.02-.1.06-.29-.04-.4-.05-.09-.2-.41-.22-.49,0-.04-.01-.09-.04-.12.04,0,.07,0,.1,0l.21-.15s.1-.28-.01-.49c-.06-.11-.17-.17-.3-.17-.16,0-.32.1-.38.15-.12.07-.35.1-.52.1-.08,0-.14,0-.17-.01-.17-.04-.7-.15-.83-.17-.02,0-.07-.03-.11-.04-.13-.05-.32-.13-.54-.14h0Z"/>
        </g>
        <g>
          <path class="cls-1" d="m23.88,6.52c-.08-.05-.35-.36-.39-.65-.04-.34,0-.39.04-.42l.21.05c.03.09.08.21.1.24.03.04.12.14.16.15.07-.04.17-.08.2-.1.01-.02.06-.06.1-.11.05-.05.15-.16.17-.19-.19-.13-.62-.36-.68-.38-.07-.01-.22-.11-.27-.23l.03-.21c.04-.05.11-.08.18-.08.12,0,.24.08.27.1h0s.37.19.41.21c.1.09.15.14.17.15.01,0,.04,0,.06.01.01-.07.01-.14,0-.16-.01,0-.06-.06-.09-.07,0,0-.01,0-.02,0-.07,0-.15-.05-.23-.13l-.03-.13c.03-.1.16-.28.41-.28l.08.07c.05,0,.13.02.18.02.03,0,.09-.02.12-.04.08-.03.16-.06.22-.06.16.03.34.18.45.34.12.17.15.36.15.37l-.1.14-.55.11.03.02c.11.06.38.28.41.33.06.08.16.23.11.34l-.12.08h-.27c-.19-.14-.33-.27-.38-.29-.03-.02-.07-.04-.11-.06-.03-.02-.09-.06-.11-.06.04.02-.1.24-.19.36l-.06.09s-.23.32-.23.32c-.06.08-.24.19-.36.19l-.1-.03Zm1.24-1.61c.05-.02.1-.03.11-.04.02-.01.05-.06.06-.09h.01s-.1,0-.16.01c-.01.04-.03.09-.04.11,0,0,0,0,0,0,0,0,0,0,0,0Z"/>
          <path class="cls-2" d="m25.29,4.41s.01,0,.02,0c.07.02.23.13.33.28.1.15.13.32.13.32l-.72.14s-.1.03-.05.09c.05.05.13.07.23.13.1.05.35.27.37.29.02.03.14.21.09.21h-.27s-.23-.23-.32-.27c-.08-.04-.2-.14-.26-.14-.01,0-.02,0-.03,0-.05.05-.29.44-.33.49-.04.05-.18.26-.23.32-.04.05-.18.14-.26.14-.01,0-.02,0-.03,0-.05-.04-.3-.31-.34-.57,0,0-.04-.27,0-.31,0,0,.07.21.11.27.03.05.18.2.24.2,0,0,0,0,.01,0,.05-.03.26-.08.3-.15.05-.06.27-.27.29-.35.02-.08,0-.15-.11-.2-.1-.05-.6-.32-.66-.33-.06,0-.25-.14-.17-.24.02-.03.05-.04.09-.04.09,0,.2.07.2.07,0,0,.37.18.4.21.04.03.16.16.2.17.05.01.21.04.21.04,0,0,.07-.31,0-.38-.06-.06-.12-.12-.17-.12,0,0-.01,0-.02,0,0,0,0,0-.01,0-.05,0-.15-.1-.15-.1,0,0,.06-.19.29-.19,0,0,0,0,.01,0v.06s.16.03.25.03c0,0,.01,0,.02,0,.08,0,.25-.1.33-.1m-.25.65s.19-.05.26-.09c.06-.05.1-.15.1-.15,0,0,0-.14-.05-.16,0,0-.03,0-.05,0-.09,0-.25.04-.25.04,0,0-.04.13-.05.17-.02.04.05.21.05.21m.25-.9c-.09,0-.18.03-.27.07-.03.01-.07.03-.09.03-.03,0-.11-.01-.16-.02l-.07-.07s0,0,0,0c-.34,0-.5.23-.55.36l.03.11s-.09-.05-.15-.08c-.01-.01-.15-.1-.31-.1-.11,0-.21.05-.28.13-.08.09-.1.22-.05.33.06.17.26.29.37.31.04.02.35.18.52.27-.03.03-.06.06-.09.09-.05.06-.1.11-.12.13,0,0,0,0,0,0-.01,0-.05.01-.08.02-.03-.02-.05-.05-.06-.07-.03-.05-.08-.21-.08-.21l-.41-.09c-.08.08-.12.19-.07.52.05.34.34.67.45.74l.17.05c.17,0,.38-.13.46-.24l.06-.08c.06-.09.15-.21.18-.25l.06-.09c.04-.07.1-.16.16-.24.03.02.06.04.08.05.03.02.15.13.26.23l.18.07h.27l.24-.15c.06-.12.02-.28-.12-.47-.03-.04-.13-.13-.23-.21l.26-.05.2-.28s-.04-.24-.17-.42c-.11-.16-.31-.35-.48-.38h-.07Z"/>
        </g>
      </g>
      <g>
        <g>
          <path class="cls-1" d="m28.47,9.28c-.2-.03-.38-.08-.37-.23,0,0,0-.2.13-.35.08-.1.24-.21.36-.29l.18-.13c.23-.16.91-.66,1.15-.97.29-.21.47-.38.55-.46.09-.08.15-.1.21-.1.07,0,.2.02.31.19.08.11.12.13.17.14.1.03.15.1.22.22.02.03.05.08.06.09.08.04.11.19.08.3-.03.11-.11.18-.22.18h0c-.15-.02-.56-.05-.78-.06,0,.09.01.18.03.22.07.15,0,.38-.01.43l-.13.09-.67-.08c-.11-.08-.16-.13-.18-.13-.02.01-.12.06-.15.09l-.14.15c-.16.17-.41.42-.47.48-.09.08-.24.2-.24.2l-.1.03Zm1.47-1.19s.14-.05.21-.07l-.06-.08s-.08.09-.16.15c0,0,0,0,0,0Z"/>
          <path class="cls-2" d="m30.69,6.89c.06,0,.14.03.21.13.11.17.2.18.26.2.06.02.17.26.22.29.05.03.09.26-.06.26,0,0-.01,0-.02,0-.17-.02-.88-.07-.88-.07,0,0-.01.29.04.4.05.12-.02.34-.02.34l-.67-.08s-.1-.13-.17-.13c0,0,0,0,0,0-.07.01-.2.08-.25.13-.05.05-.52.54-.61.62-.09.08-.23.19-.23.19,0,0-.27-.04-.26-.1,0,0,0-.17.1-.29.1-.12.36-.28.43-.33.07-.06.97-.67,1.26-1.05.33-.24.55-.45.58-.48.01-.01.04-.02.08-.02m.18.65s.03-.08.01-.11c-.02-.03-.16-.13-.16-.13l-.25.2.4.05m-1.13.67s.02,0,.03,0c0,0,.02,0,.03,0,.05,0,.12.02.12.02,0,0,.18-.05.27-.08.09-.03.02-.15.02-.18,0-.03-.08-.13-.08-.13-.19.09-.49.36-.49.36,0,0,.06.02.1.02m.95-1.57c-.09,0-.17.03-.23.08,0,0-.03.03-.06.05-.08.08-.26.24-.51.42l-.05.05c-.23.3-.9.78-1.13.94-.05.04-.08.06-.1.07-.02.01-.05.03-.09.06-.12.08-.29.2-.38.31-.16.19-.16.42-.16.45-.02.26.32.31.47.34l.2-.05s.15-.12.24-.2c.06-.06.32-.32.48-.49l.14-.14s.03-.02.05-.03c0,0,0,0,0,.01l.17.09.67.08.27-.17c.02-.07.09-.33,0-.52,0,0,0-.02,0-.03.22.02.49.04.59.05,0,0,0,0,0,0,.21,0,.34-.11.38-.27.04-.14,0-.33-.12-.43-.01-.02-.03-.04-.04-.07-.07-.12-.14-.24-.27-.27-.06-.02-.07-.02-.13-.09-.14-.21-.32-.24-.41-.24h0Z"/>
        </g>
        <g>
          <path class="cls-1" d="m32.1,9.8c-.08-.04-.17-.09-.22-.19-.02-.02-.14-.09-.25-.14l.04-.24.3-.02c-.03-.08-.07-.12-.12-.18-.08-.09-.17-.2-.27-.27-.15-.1-.43-.22-.53-.25-.01.02-.03.04-.05.06l-.17.04c-.09,0-.19-.02-.19-.02l-.1-.13s.02-.23.12-.33c.08-.08.17-.16.22-.2l.12-.04s.09.01.13.03c.11.02.17.07.2.12.2.1.42.21.49.24-.03-.02,0-.11.02-.18.06-.08.15-.15.25-.15.1,0,.18.06.22.16.08.2.01.53,0,.57,0,.03.06.06.14.34.06.22.14.6.02.73-.08.09-.16.11-.22.11l-.17-.06Z"/>
          <path class="cls-2" d="m30.99,8.03s.11.03.16.04c.07,0,.07.07.07.07,0,0,.51.27.58.28,0,0,0,0,0,0,.07,0,.15-.28.15-.28,0,0,.07-.06.13-.06.04,0,.08.02.11.08.07.17,0,.49,0,.49,0,0-.03.14.04.16.06.02.26.74.16.85-.05.05-.09.07-.12.07-.04,0-.07-.02-.09-.04-.03-.03-.15-.06-.18-.14-.03-.08-.32-.2-.32-.2l.4-.03s.1-.13,0-.23c-.11-.1-.24-.31-.42-.43-.18-.12-.56-.27-.59-.28-.03,0-.08-.03-.08-.03,0,0,0,.09-.05.13-.02.01-.05.02-.1.02-.08,0-.17-.02-.17-.02,0,0,0-.17.08-.25.08-.08.16-.15.21-.18.01,0,.03-.01.04-.01m0-.25l-.2.07c-.05.04-.15.12-.23.21-.13.14-.15.35-.15.41l.21.26s.11.02.21.02c.07,0,.17,0,.25-.07,0,0,.01,0,.02-.01.11.05.31.14.42.21.08.05.16.15.23.23h-.08s-.08.49-.08.49c.08.03.17.08.2.11.06.11.17.17.23.2.07.06.16.09.25.09.08,0,.2-.03.31-.15.05-.05.19-.2,0-.85-.04-.14-.08-.24-.13-.31.02-.12.06-.41-.02-.61-.06-.15-.19-.24-.34-.24s-.26.09-.29.11l-.08.13s0,.02,0,.03c-.08-.04-.19-.09-.29-.15-.05-.07-.13-.13-.23-.14-.07-.02-.12-.04-.19-.04h0Z"/>
        </g>
        <g>
          <path class="cls-1" d="m31.19,9.53c-.18,0-.22,0-.24-.01-.09-.02-.14-.1-.18-.16-.09-.07-.23-.16-.21-.32.07-.1.2-.2.33-.2.1.01.16.05.2.11.02,0,.05,0,.08,0,.13,0,.22.03.28.1.1.12.16.29.17.31l-.12.16h-.31Z"/>
          <path class="cls-2" d="m30.88,8.96s.01,0,.02,0c.1.01.11.12.11.12,0,0,.08-.02.16-.02.07,0,.15.01.19.06.09.1.14.27.14.27,0,0-.17,0-.31,0-.09,0-.18,0-.2,0-.06-.02-.12-.13-.15-.16-.03-.03-.17-.08-.15-.18,0,0,.11-.09.2-.09m0-.25c-.17,0-.32.11-.36.14l-.09.17c-.03.23.18.36.24.4.04.06.11.17.24.21.04.01.1.02.27.02.15,0,.32,0,.32,0l.23-.33s-.08-.23-.19-.36c-.08-.09-.21-.14-.37-.14,0,0-.02,0-.02,0-.05-.05-.12-.09-.22-.1h-.04Z"/>
        </g>
        <g>
          <path class="cls-1" d="m30.97,9.9c-.12-.08-.17-.13-.18-.14,0,0-.26,0-.26,0l-.33-.02s-.62-.02-.75-.02h0c-.06,0-.84-.18-.92-.33v-.14c.01-.06.09-.15.21-.15.24.08.69.24.79.24h0c.1,0,.19.02.27.04.05.01.11.02.13.02,0-.01.05-.03.11-.04l.08-.23.09-.08s.12-.03.21-.03c.08,0,.14.02.19.06l.05.12s.13.04.17.04c.11,0,.33.23.35.34,0,.07-.01.18-.02.22l-.14.1h-.04Z"/>
          <path class="cls-2" d="m30.41,9.15c.06,0,.11.01.11.06,0,.11.23.16.29.17.05,0,.23.18.24.23,0,.05-.02.18-.02.18h-.04s-.12-.13-.15-.13c-.03,0-.31-.01-.31-.01l-.33-.02s-.62-.02-.75-.02c-.01,0-.02,0-.02,0,0,0,0,0,0,0-.07,0-.83-.22-.79-.27,0,0,.03-.09.1-.09.01,0,.03,0,.04.01.1.04.6.23.75.23,0,0,0,0,0,0,0,0,0,0,.01,0,.12,0,.31.06.39.06.01,0,.02,0,.03,0,.04-.03.17-.05.17-.05l.1-.31s.1-.03.18-.03m0-.25c-.11,0-.22.03-.25.03l-.17.16-.06.17s-.03,0-.04.01c-.02,0-.05,0-.08-.02-.09-.02-.19-.04-.28-.04-.11,0-.53-.15-.67-.21l-.14-.03c-.18,0-.3.13-.34.26h.03s0,.2,0,.2c.13.23.97.39,1.01.39,0,0,0,0,0,0,.17,0,.76.02.76.02l.33.02s.15,0,.23,0c.03.02.05.05.05.05l.15.08.32-.19c.02-.08.03-.19.02-.26-.02-.17-.29-.43-.46-.45-.03,0-.09-.02-.11-.03l-.04-.09c-.07-.07-.16-.1-.28-.1h0Z"/>
        </g>
        <g>
          <path class="cls-1" d="m30.5,11.73c-.14,0-.23-.03-.29-.09-.06-.07-.57-.81-.59-.96-.01-.1.02-.46.19-.56.06-.03.26-.22.39-.34l.1-.03.21.02.07.21-.12.12s-.22.24-.26.3c0,0-.13.2.15.45.24.22.39.24.42.24.08-.04.4-.35.4-.35l.2.15s-.26.5-.35.64c-.1.16-.39.2-.53.2Z"/>
          <path class="cls-2" d="m30.29,9.87l.21.02-.12.12s-.23.26-.27.32c-.04.06-.15.32.17.61.24.21.41.27.51.27.03,0,.06,0,.08-.02.06-.04.41-.37.41-.37,0,0-.25.49-.35.63-.06.09-.26.15-.42.15-.09,0-.16-.02-.19-.05-.09-.1-.55-.8-.56-.89-.01-.09.03-.38.13-.44.09-.06.41-.36.41-.36m.03-.25l-.2.07c-.14.13-.32.3-.37.33-.23.14-.26.58-.25.68.03.2.57.97.62,1.02.08.09.21.14.38.14.05,0,.47,0,.63-.26.1-.15.33-.6.36-.65l-.4-.3c-.12.12-.26.25-.34.31-.05-.01-.15-.05-.31-.2-.19-.17-.13-.28-.13-.3.04-.06.25-.29.25-.29l.11-.11-.15-.42-.21-.02h0Z"/>
        </g>
      </g>
      <g>
        <g>
          <path class="cls-1" d="m16.53,2.96c-.02-.08-.03-.21-.02-.28.01-.07.06-.12.1-.16l.15-.15c.07-.02.14-.03.22-.03.1,0,.18.02.23.03.08,0,.27-.04.43-.07.1-.02.2-.03.24-.04.03,0,.15-.06.21-.09.02,0,.04-.02.05-.03,0,0-.12-.1-.12-.1,0-.04-.03-.25.06-.38.16-.23.24-.23.27-.23.06,0,.1.03.28.2.08.07.16.15.19.17.06.04.11.11.14.26.06-.01.13-.03.22-.05.13-.03.71-.06.75-.06.1-.03.23-.06.34-.06.2,0,.33.1.34.28,0,.08-.02.16-.08.22-.14.15-.42.18-.63.18l-.58.07v.04s-.17.04-.17.04l-.18-.02c-.14.09-.19.09-.21.09-.04,0-.19-.02-.19-.02-.22.01-.52.05-.59.09-.06.03-.21.09-.32.09-.09-.01-.21-.02-.34-.02-.2,0-.31,0-.33.01.01.03-.21.11-.32.11l-.18-.09Z"/>
          <path class="cls-2" d="m18.37,1.56s.34.31.42.35c.07.04.11.31.11.31,0,0,0,0,0,0,0-.01.29-.08.37-.1.08-.02.64-.05.69-.05.03,0,.2-.06.34-.06.11,0,.21.04.21.16.02.24-.43.26-.59.26-.03,0-.05,0-.05,0l-.55.07-.07.07h-.08l-.16-.02s-.18.09-.22.09-.17-.02-.17-.02c0,0-.54.02-.68.11,0,0-.16.07-.25.07,0,0-.02,0-.02,0-.03,0-.17-.01-.31-.01-.18,0-.36,0-.37.02-.02.02-.18.1-.27.1-.03,0-.06,0-.07-.03,0,0-.01-.13,0-.19.01-.06.13-.12.16-.21.06-.02.13-.02.19-.02.08,0,.15.01.2.02,0,0,.02,0,.03,0,.14,0,.58-.09.68-.1.11-.01.39-.19.48-.19,0,0-.13-.17-.2-.17,0,0,0,0-.01,0,0,0-.03-.19.04-.29.07-.1.14-.17.17-.17m0-.25c-.09,0-.2.03-.38.28-.12.17-.09.41-.08.48l.05.03s-.08.04-.1.04c-.03,0-.13.02-.24.04-.12.02-.35.06-.41.06-.03,0-.12-.03-.23-.03-.09,0-.17.01-.25.03l-.17.16s0,0,0,0c0,0-.02.01-.03.02-.05.05-.12.12-.14.23-.01.08,0,.2,0,.25l.04.11c.06.09.16.14.28.14.09,0,.26-.04.38-.12.06,0,.17,0,.27,0,.11,0,.22,0,.26,0h.08c.12,0,.29-.06.35-.09.09-.05.34-.08.58-.09,0,0,.13.02.17.02.04,0,.09,0,.27-.08h.09s.11.01.11.01l.18-.07h.01s.46-.07.46-.07h.02c.35,0,.59-.07.72-.21.08-.09.12-.2.11-.31-.01-.18-.14-.4-.46-.4-.13,0-.27.04-.34.06-.02,0-.62.03-.75.06-.05.01-.09.02-.13.03-.04-.1-.09-.18-.17-.22-.03-.02-.1-.09-.17-.15-.2-.19-.26-.24-.37-.24h0Z"/>
        </g>
        <g>
          <path class="cls-1" d="m19.21,5.46c-.06,0-.13-.02-.2-.04-.13-.05-.21-.13-.29-.19-.09-.08-.16-.14-.27-.16l-.09-.07v-.21s.05-.06.09-.07c-.05,0-.1,0-.17,0-.29,0-.37-.05-.41-.1-.05-.05-.11-.12-.15-.19-.04.05-.07.08-.08.1,0,0,0,0,0,0,0,0,0,.06-.13.27-.03.05-.06.11-.07.12,0,.02-.02.07-.25.32h-.19s-.14-.22-.01-.52c.05-.12.11-.2.15-.26.05-.07.08-.11.09-.2,0,0,.09-.57.18-.66.03-.03.23-.21.23-.21.05-.02.09-.04.12-.05-.03,0-.07-.03-.11-.04l-.08-.12v-.22s.05-.09.05-.09c.05-.04.14-.11.23-.11l.15.1c.11.15.17.22.17.3.01,0,.02.01.04.01.05,0,.11-.04.19-.09.1-.06.31-.23.38-.29l.15-.14h-.04s.11-.14.11-.14c0,0,.11,0,.2,0l.15.02c.07.03.11.09.07.48l-.09.1-.07.02c.28.22.29.26.3.28.04.08,0,.16-.1.26,0,.28.05,1.43.05,1.5,0,.07-.03.14-.08.19-.06.06-.14.09-.23.09h0Zm-.72-.75c.11.02.17.06.21.1.04.03.07.06.1.06h0c.06,0,.12-.03.13-.05,0-.06.03-1.3.03-1.3,0,0-.01,0-.02-.01-.03.06-.07.12-.14.16v.14s.09.08.11.15c.02.09.05.38-.14.51,0,.01-.02.08-.03.1-.04.08-.08.12-.25.14Zm-.23-.45h0Zm-.42-.24s.06-.05.09-.08c-.02,0-.03-.02-.03-.02l-.05-.09c0,.06,0,.12,0,.19Zm.46-.39s.05-.05.07-.07l-.08.02s0,.03,0,.05Z"/>
          <path class="cls-2" d="m19.21,2.64s.08,0,.09,0c.04.02,0,.35,0,.35,0,0-.21.07-.24.08-.03.01-.03.12-.03.12h.16s.25.23.27.27c.02.04-.11.15-.11.15,0,0,.05,1.48.05,1.56,0,.06-.06.16-.19.16-.04,0-.09-.01-.15-.04-.24-.1-.31-.3-.58-.36,0,0-.05-.1.02-.1,0,0,.01,0,.02,0,.09.02.17.14.28.15,0,0,.01,0,.02,0,.11,0,.22-.07.23-.12.01-.05.04-1.35.04-1.35,0,0-.08-.18-.17-.18-.02,0-.04,0-.06.03,0,0-.02.14-.11.19-.09.05-.11.16-.08.24.03.08.11.11.13.19.02.08.03.29-.09.37,0,0-.08.15-.08.19,0,.02-.17.04-.33.04-.14,0-.28-.01-.3-.05-.06-.08-.23-.2-.13-.34.1-.14.43-.38.49-.43.06-.04.13-.14.17-.16.04-.02.13-.26.07-.26,0,0,0,0,0,0-.07.01-.19.09-.19.09l-.24.04.03.11s.05.19-.04.23c-.03.01-.05.02-.07.02-.05,0-.09-.03-.09-.03v-.3s0,0-.02,0c-.05,0-.17,0-.19.07-.03.08-.05.71-.05.71,0,0-.17.15-.17.19s-.12.25-.12.25c0,0-.07.11-.08.15-.01.04-.22.27-.22.27,0,0-.1-.14,0-.38.1-.24.22-.27.25-.49.03-.21.11-.56.14-.59.03-.03.22-.2.22-.2,0,0,.18-.05.18-.13s-.21-.17-.21-.17v-.22s.1-.08.16-.08c.02,0,.03,0,.04.02.03.07.16.19.16.26s-.01.16.05.16c.04,0,.09.02.12.02.02,0,.04,0,.05-.02.04-.04.17-.12.23-.16.06-.04.28-.21.36-.28.07-.07.15-.15.15-.15v-.1s.11,0,.19,0m-.95,1.7c.1,0,.23-.05.26-.07v-.17s-.07-.01-.1-.01c-.14,0-.31.06-.27.18.01.05.06.07.12.07m.95-1.95c-.09,0-.21,0-.21,0l-.2.21s-.07.07-.1.1c-.06.06-.28.22-.32.25-.04.02-.07.05-.1.07-.03-.06-.07-.12-.11-.16-.02-.02-.03-.04-.04-.05-.04-.1-.14-.17-.26-.17-.12,0-.23.07-.31.14l-.09.18v.22s.08.15.08.15c-.05.05-.19.17-.21.19-.12.12-.2.63-.21.73,0,.06-.02.08-.07.14-.05.06-.11.15-.17.28-.15.36,0,.6.03.63l.39.02c.26-.28.27-.33.28-.38,0-.02.05-.08.05-.08.06-.1.09-.17.12-.22,0,0,0,0,.01.01.1.13.22.17.45.18,0,.09.02.16.04.2l.17.14c.08.02.13.06.22.13.08.07.18.16.32.22.09.04.17.05.25.05.27,0,.44-.21.44-.41,0-.07-.04-1.11-.05-1.46.11-.13.14-.25.08-.37-.02-.03-.03-.07-.22-.24l.08-.09c.04-.34.03-.52-.14-.6-.06-.03-.12-.04-.2-.04h0Zm-.41,2.33h0s0,0,0,0c0,0,0,0,0,0h0Z"/>
        </g>
      </g>
      <g>
        <g>
          <polygon class="cls-1" points="23.87 18 23.99 17.86 24.25 17.86 24.37 17.98 24.37 18.22 24.25 18.35 24.23 18.35 24.23 18.69 23.98 18.71 23.87 18"/>
          <path class="cls-2" d="m24.25,17.98v.24h-.14v.47c-.04-.24-.07-.47-.11-.71h.25m0-.25h-.25l-.25.28c.02.17.05.34.08.51l.03.21.5-.04v-.33l.14-.14v-.24l-.25-.25h0Z"/>
        </g>
        <g>
          <path class="cls-1" d="m11.8,22.07l-.12-.1-.83-3.6h-.18l-.12-.12v-.26l.12-.12h1.33l.12.12v.25l-.12.12h-.1l.43,2.44.48-2.84.12-.1h.52l.12.14c-.19,1.32-.45,2.66-.75,3.97l-.12.1h-.91Z"/>
          <path class="cls-2" d="m13.46,17.99c-.18,1.2-.42,2.53-.75,3.96h-.91l-.85-3.7h-.28v-.26h1.33v.25h-.25l.59,3.3.6-3.55h.52m0-.25h-.52l-.25.21-.36,2.13-.29-1.63.21-.21v-.25l-.25-.25h-1.33l-.25.25v.26l.25.25h.08l.8,3.5.24.19h.91l.24-.19c.31-1.31.56-2.65.76-3.98l-.25-.29h0Z"/>
        </g>
        <g>
          <path class="cls-1" d="m24.75,22.12l-.15-.1-.13-.61.16-.15c.09.03.16.04.2.04.06,0,.57-.02.57-.68v-2.27s-.13-.12-.13-.12v-.24l.12-.12h1.32l.12.12v.24l-.12.12h-.06v2.28c0,.06,0,.59-.4,1-.32.33-.8.5-1.43.5h-.06Z"/>
          <path class="cls-2" d="m26.7,17.98v.24h-.19v2.4s.02.52-.36.91c-.29.3-.75.46-1.34.46-.03,0-.06,0-.09,0-.04-.2-.09-.4-.13-.61.09.03.18.04.23.04.26,0,.69-.17.69-.81v-2.39h-.13v-.24h1.32m0-.25h-1.32l-.25.25v.24l.13.13v2.27c0,.53-.37.56-.44.56-.02,0-.08,0-.16-.03l-.32.29c.04.21.09.41.13.61l.24.19s.07,0,.09,0c.67,0,1.18-.18,1.52-.54.46-.48.43-1.09.43-1.1v-2.2s.19-.19.19-.19v-.24l-.25-.25h0Z"/>
        </g>
        <g>
          <path class="cls-1" d="m18.67,31.53c-7.09,0-12.86-5.77-12.86-12.86s5.77-12.86,12.86-12.86,12.86,5.77,12.86,12.86-5.77,12.86-12.86,12.86Zm7.2-5.13c-.18-.47-.69-1.88-1.19-4.06l.12-.15h0c.66,0,1.16-.17,1.49-.52.44-.45.42-1.04.42-1.05v-2.08l.12-.12h.06v-.62h-1.7v.62s.13.12.13.12v2.08c0,.39-.2.62-.53.62-.04,0-.16,0-.28-.09-.06-.04-.1-.11-.13-.16l-.05-.21-.04-.19v-2.04s.12-.12.12-.12h.02v-.62h-.48l-.12-.11c-.25-1.88-.4-3.8-.45-5.73h-2.72l-.12-.14.34-2.51h-4.35l.34,2.51-.12.14h-2.7c0,.54.01,2.71-.41,5.73l-.12.11h-.73l-.33,1.92h-.25s-.2-1.14-.2-1.14l.12-.15h.06v-.63h-1.71v.64h.22l.12.1.83,3.6h.99l.12.15c-.34,1.4-.74,2.78-1.2,4.1h4.8c.14-.26.66-1.36.88-3.45l.12-.11h2.62l.12.11s.25,2.17.93,3.46h4.82Z"/>
          <path class="cls-2" d="m18.67,5.94c7.03,0,12.73,5.7,12.73,12.73s-5.7,12.73-12.73,12.73-12.73-5.7-12.73-12.73,5.7-12.73,12.73-12.73m2.35,3.24h-4.64l.36,2.65h-2.83s.08,2.32-.4,5.84h-.84l-.34,2.02-.2-1.14h.19v-.89h-1.96v.89h.35l.85,3.7h1.09c-.33,1.35-.74,2.78-1.25,4.25h5.05s.67-1.1.93-3.56h2.62s.25,2.25.98,3.57h5.08s-.62-1.5-1.26-4.21c0,0,0,0,.01,0,.69,0,1.22-.19,1.57-.56.47-.49.45-1.12.45-1.14v-2.08h.19v-.87h-1.95v.87h.13v2.08c0,.44-.26.49-.4.49-.02,0-.12,0-.21-.06-.04-.03-.07-.08-.09-.12-.02-.12-.05-.24-.07-.37v-2.02h.14v-.87h-.61c-.23-1.73-.4-3.68-.46-5.83h-2.85l.36-2.65m-2.35-3.49c-7.16,0-12.98,5.82-12.98,12.98s5.82,12.98,12.98,12.98,12.98-5.82,12.98-12.98-5.82-12.98-12.98-12.98h0Zm-2,3.74h4.06l-.32,2.37.25.28h2.6c.06,1.89.21,3.77.45,5.62l.25.22h.36v.48l-.14.14v2.02l.05.27.03.14.03.07c.04.06.08.15.17.21.15.1.3.11.35.11.31,0,.65-.19.65-.74v-2.08l-.13-.13v-.49h1.45v.43l-.19.19v2.08s.01.55-.38.97c-.31.32-.77.48-1.39.48l-.26.31c.46,1.98.92,3.31,1.13,3.9h-4.57c-.64-1.27-.88-3.33-.88-3.35l-.25-.22h-2.62l-.25.22c-.21,1.92-.67,3-.83,3.34h-4.55c.43-1.27.82-2.6,1.15-3.94l-.24-.31h-.89l-.8-3.5-.24-.19h-.1v-.39h1.46v.46l-.18.22.2,1.14h.49s.31-1.82.31-1.82h.62l.25-.22c.39-2.83.42-4.92.41-5.62h2.57l.25-.28-.32-2.37h0Z"/>
        </g>
      </g>
      <g>
        <path class="cls-1" d="m17.2,22.23l-.12-.12v-1.17l.12-.12h.38v-1.65h-.38l-.12-.12v-1.2l.12-.12h3.12c.06,0,1.26.06,1.3,1.21.02.49-.18.77-.36.93.21.17.45.48.45,1,0,1.01-.89,1.34-1.37,1.38h0s-3.14,0-3.14,0Zm2.78-1.22s.09,0,.15-.06c.05-.05.08-.14.07-.25,0-.28-.18-.32-.25-.32h-.8v.63h.83Zm-.07-1.44s.08,0,.13-.06c.05-.05.08-.14.07-.26,0-.28-.16-.32-.22-.32h-.75v.63h.76Z"/>
        <path class="cls-2" d="m20.32,17.83s1.14.03,1.18,1.09c.02.56-.26.81-.45.93.21.13.54.41.54,1,0,1.16-1.24,1.25-1.25,1.26h-3.14v-1.17h.5v-1.9h-.5v-1.2h3.12m-.41,1.86s.14,0,.22-.09c.08-.08.11-.19.11-.35,0-.41-.29-.44-.35-.44,0,0,0,0,0,0h-.86v.88h.89m.07,1.44s.15,0,.24-.1c.08-.08.11-.19.11-.34-.01-.42-.33-.44-.37-.44h-.93v.88h.95m.35-3.55h-3.12l-.25.25v1.2l.25.25h.25v1.4h-.25l-.25.25v1.17l.25.25h3.13c.57-.05,1.5-.41,1.5-1.51,0-.49-.19-.81-.39-1.01.17-.19.32-.48.3-.93-.04-1.03-.95-1.32-1.42-1.33h0Zm-1.05,2.92h.68c.08,0,.12.06.12.19,0,.04,0,.12-.04.16-.02.02-.06.03-.06.03h-.7v-.38h0Z"/>
      </g>
      <g>
        <polygon class="cls-1" points="13.72 22.23 13.6 22.13 13.28 20.72 12.99 22.13 12.87 22.23 11.68 22.23 11.56 22.13 10.73 18.53 10.51 18.53 10.39 18.41 10.39 17.83 10.51 17.7 12.16 17.7 12.28 17.83 12.28 18.4 12.16 18.52 12.09 18.52 12.33 19.88 12.68 17.81 12.81 17.7 13.8 17.7 13.92 17.81 14.24 19.85 14.48 18.51 14.39 18.51 14.27 18.39 14.27 17.83 14.39 17.7 16.06 17.7 16.18 17.83 16.18 18.41 16.06 18.53 15.87 18.53 15.01 22.13 14.89 22.23 13.72 22.23"/>
        <path class="cls-2" d="m16.06,17.83v.58h-.29l-.88,3.7h-1.17l-.44-1.97-.41,1.97h-1.19l-.85-3.7h-.32v-.58h1.65v.57h-.22l.39,2.22.47-2.79h.99l.43,2.78.4-2.22h-.24v-.56h1.66m0-.25h-1.66l-.25.25v.56l.2.2-.09.51-.2-1.31-.25-.21h-.99l-.25.21-.23,1.37-.1-.57.18-.18v-.57l-.25-.25h-1.65l-.25.25v.58l.25.25h.12l.81,3.5.24.19h1.19l.24-.2.17-.84.19.84.24.2h1.17l.24-.19.83-3.5h.09l.25-.25v-.58l-.25-.25h0Z"/>
      </g>
      <g>
        <path class="cls-1" d="m24.81,22.28c-.68,0-1.2-.18-1.55-.55-.46-.48-.44-1.1-.44-1.12v-2.11h-.05l-.12-.12v-.55l.12-.12h1.64l.12.12v.55l-.12.12h-.02v2.11c0,.22.06.37.18.46.1.07.21.07.23.07.12,0,.43-.04.43-.52v-2.11s-.13-.12-.13-.12v-.55l.12-.12h1.64l.12.12v.55l-.12.12h-.06v2.11s.02.64-.44,1.12c-.35.36-.87.55-1.55.55Z"/>
        <path class="cls-2" d="m26.86,17.83v.55h-.19v2.24s.06,1.54-1.87,1.54-1.87-1.54-1.87-1.54v-2.24h-.17v-.55h1.64v.55h-.14v2.24c0,.62.45.65.53.65,0,0,.01,0,.01,0,0,0,0,0,.01,0,.08,0,.53-.03.53-.65v-2.24h-.13v-.55h1.64m0-.25h-1.64l-.25.25v.55l.13.13v2.11c0,.33-.15.4-.28.4-.15,0-.31-.07-.31-.4v-2.09l.14-.14v-.55l-.25-.25h-1.64l-.25.25v.55l.17.17v2.06s-.02.68.48,1.2c.37.39.92.58,1.64.58s1.26-.2,1.64-.58c.5-.52.48-1.18.48-1.21v-2.04s.19-.19.19-.19v-.55l-.25-.25h0Z"/>
      </g>
    </g>
  </g>
</svg>